%TF.GenerationSoftware,KiCad,Pcbnew,9.0.5*%
%TF.CreationDate,2026-03-01T18:55:26+05:30*%
%TF.ProjectId,SEM4,53454d34-2e6b-4696-9361-645f70636258,rev?*%
%TF.SameCoordinates,Original*%
%TF.FileFunction,Copper,L2,Inr*%
%TF.FilePolarity,Positive*%
%FSLAX46Y46*%
G04 Gerber Fmt 4.6, Leading zero omitted, Abs format (unit mm)*
G04 Created by KiCad (PCBNEW 9.0.5) date 2026-03-01 18:55:26*
%MOMM*%
%LPD*%
G01*
G04 APERTURE LIST*
G04 Aperture macros list*
%AMRoundRect*
0 Rectangle with rounded corners*
0 $1 Rounding radius*
0 $2 $3 $4 $5 $6 $7 $8 $9 X,Y pos of 4 corners*
0 Add a 4 corners polygon primitive as box body*
4,1,4,$2,$3,$4,$5,$6,$7,$8,$9,$2,$3,0*
0 Add four circle primitives for the rounded corners*
1,1,$1+$1,$2,$3*
1,1,$1+$1,$4,$5*
1,1,$1+$1,$6,$7*
1,1,$1+$1,$8,$9*
0 Add four rect primitives between the rounded corners*
20,1,$1+$1,$2,$3,$4,$5,0*
20,1,$1+$1,$4,$5,$6,$7,0*
20,1,$1+$1,$6,$7,$8,$9,0*
20,1,$1+$1,$8,$9,$2,$3,0*%
G04 Aperture macros list end*
%TA.AperFunction,ComponentPad*%
%ADD10R,1.800000X4.400000*%
%TD*%
%TA.AperFunction,ComponentPad*%
%ADD11O,1.800000X4.000000*%
%TD*%
%TA.AperFunction,ComponentPad*%
%ADD12O,4.000000X1.800000*%
%TD*%
%TA.AperFunction,ComponentPad*%
%ADD13C,1.600000*%
%TD*%
%TA.AperFunction,ComponentPad*%
%ADD14RoundRect,0.250001X1.149999X-1.149999X1.149999X1.149999X-1.149999X1.149999X-1.149999X-1.149999X0*%
%TD*%
%TA.AperFunction,ComponentPad*%
%ADD15C,2.800000*%
%TD*%
%TA.AperFunction,ComponentPad*%
%ADD16R,1.800000X1.800000*%
%TD*%
%TA.AperFunction,ComponentPad*%
%ADD17C,1.800000*%
%TD*%
%TA.AperFunction,ComponentPad*%
%ADD18C,2.000000*%
%TD*%
%TA.AperFunction,ComponentPad*%
%ADD19RoundRect,0.250000X-0.550000X-0.550000X0.550000X-0.550000X0.550000X0.550000X-0.550000X0.550000X0*%
%TD*%
%TA.AperFunction,ComponentPad*%
%ADD20RoundRect,0.250001X-1.149999X1.149999X-1.149999X-1.149999X1.149999X-1.149999X1.149999X1.149999X0*%
%TD*%
%TA.AperFunction,ComponentPad*%
%ADD21C,1.000000*%
%TD*%
%TA.AperFunction,ComponentPad*%
%ADD22RoundRect,0.250001X1.149999X1.149999X-1.149999X1.149999X-1.149999X-1.149999X1.149999X-1.149999X0*%
%TD*%
%TA.AperFunction,ComponentPad*%
%ADD23RoundRect,0.250000X-0.725000X0.600000X-0.725000X-0.600000X0.725000X-0.600000X0.725000X0.600000X0*%
%TD*%
%TA.AperFunction,ComponentPad*%
%ADD24O,1.950000X1.700000*%
%TD*%
%TA.AperFunction,ComponentPad*%
%ADD25R,2.000000X2.000000*%
%TD*%
%TA.AperFunction,ComponentPad*%
%ADD26R,1.050000X1.500000*%
%TD*%
%TA.AperFunction,ComponentPad*%
%ADD27O,1.050000X1.500000*%
%TD*%
%TA.AperFunction,ComponentPad*%
%ADD28RoundRect,0.250000X0.725000X-0.600000X0.725000X0.600000X-0.725000X0.600000X-0.725000X-0.600000X0*%
%TD*%
%TA.AperFunction,ComponentPad*%
%ADD29R,1.905000X2.000000*%
%TD*%
%TA.AperFunction,ComponentPad*%
%ADD30O,1.905000X2.000000*%
%TD*%
%TA.AperFunction,ViaPad*%
%ADD31C,0.600000*%
%TD*%
%TA.AperFunction,Conductor*%
%ADD32C,0.200000*%
%TD*%
G04 APERTURE END LIST*
D10*
%TO.N,Net-(J3-Pad1)*%
%TO.C,J3*%
X123800000Y-47500000D03*
D11*
%TO.N,GND*%
X118000000Y-47500000D03*
D12*
%TO.N,N/C*%
X120800000Y-52300000D03*
%TD*%
D10*
%TO.N,Net-(U4-VCC1)*%
%TO.C,J4*%
X124850000Y-134900000D03*
D11*
%TO.N,GND*%
X119050000Y-134900000D03*
D12*
%TO.N,N/C*%
X121850000Y-139700000D03*
%TD*%
D13*
%TO.N,5V*%
%TO.C,C1*%
X151750000Y-59500000D03*
%TO.N,GND*%
X154250000Y-59500000D03*
%TD*%
D14*
%TO.N,Net-(J10-Pin_1)*%
%TO.C,J10*%
X160500000Y-137000000D03*
D15*
%TO.N,Net-(J10-Pin_2)*%
X160500000Y-132000000D03*
%TD*%
D16*
%TO.N,GND*%
%TO.C,D2*%
X198500000Y-99500000D03*
D17*
%TO.N,Net-(D2-A)*%
X201040000Y-99500000D03*
%TD*%
D13*
%TO.N,5V*%
%TO.C,C5*%
X151850000Y-62570000D03*
%TO.N,GND*%
X154350000Y-62570000D03*
%TD*%
D18*
%TO.N,Net-(C7-Pad1)*%
%TO.C,FB1*%
X160500000Y-44500000D03*
%TO.N,Net-(U2-IN)*%
X164500000Y-44500000D03*
%TD*%
D13*
%TO.N,Net-(C7-Pad1)*%
%TO.C,C7*%
X145000000Y-42000000D03*
%TO.N,GND*%
X147500000Y-42000000D03*
%TD*%
D16*
%TO.N,GND*%
%TO.C,D1*%
X198500000Y-95030000D03*
D17*
%TO.N,Net-(D1-A)*%
X201040000Y-95030000D03*
%TD*%
D13*
%TO.N,Reset*%
%TO.C,C10*%
X107750000Y-90000000D03*
%TO.N,GND*%
X110250000Y-90000000D03*
%TD*%
%TO.N,GPIO_FLAG_2*%
%TO.C,R2*%
X185960000Y-99080000D03*
%TO.N,Net-(D2-A)*%
X193580000Y-99080000D03*
%TD*%
D19*
%TO.N,Net-(J8-Pin_4)*%
%TO.C,U4*%
X145380000Y-126760000D03*
D13*
%TO.N,Net-(J8-Pin_6)*%
X145380000Y-129300000D03*
%TO.N,Net-(J9-Pin_1)*%
X145380000Y-131840000D03*
%TO.N,GND*%
X145380000Y-134380000D03*
X145380000Y-136920000D03*
%TO.N,Net-(J9-Pin_2)*%
X145380000Y-139460000D03*
%TO.N,Net-(J8-Pin_5)*%
X145380000Y-142000000D03*
%TO.N,Net-(U4-VCC1)*%
X145380000Y-144540000D03*
%TO.N,Net-(J8-Pin_1)*%
X153000000Y-144540000D03*
%TO.N,Net-(J8-Pin_3)*%
X153000000Y-142000000D03*
%TO.N,Net-(J10-Pin_1)*%
X153000000Y-139460000D03*
%TO.N,GND*%
X153000000Y-136920000D03*
X153000000Y-134380000D03*
%TO.N,Net-(J10-Pin_2)*%
X153000000Y-131840000D03*
%TO.N,Net-(J8-Pin_2)*%
X153000000Y-129300000D03*
%TO.N,Net-(U4-VCC1)*%
X153000000Y-126760000D03*
%TD*%
D20*
%TO.N,Net-(J9-Pin_1)*%
%TO.C,J9*%
X138500000Y-134500000D03*
D15*
%TO.N,Net-(J9-Pin_2)*%
X138500000Y-139500000D03*
%TD*%
D13*
%TO.N,GPIO_FLAG_1*%
%TO.C,R1*%
X185960000Y-95030000D03*
%TO.N,Net-(D1-A)*%
X193580000Y-95030000D03*
%TD*%
D19*
%TO.N,Reset*%
%TO.C,U1*%
X147380000Y-74140000D03*
D13*
%TO.N,Net-(J1-Pin_1)*%
X147380000Y-76680000D03*
%TO.N,Net-(J1-Pin_2)*%
X147380000Y-79220000D03*
%TO.N,Net-(J1-Pin_3)*%
X147380000Y-81760000D03*
%TO.N,Net-(J1-Pin_4)*%
X147380000Y-84300000D03*
%TO.N,Net-(J1-Pin_5)*%
X147380000Y-86840000D03*
%TO.N,5V*%
X147380000Y-89380000D03*
%TO.N,GND*%
X147380000Y-91920000D03*
%TO.N,Net-(U1-XTAL1{slash}PB6)*%
X147380000Y-94460000D03*
%TO.N,Net-(U1-XTAL2{slash}PB7)*%
X147380000Y-97000000D03*
%TO.N,Net-(J1-Pin_6)*%
X147380000Y-99540000D03*
%TO.N,Net-(J1-Pin_7)*%
X147380000Y-102080000D03*
%TO.N,Net-(J1-Pin_8)*%
X147380000Y-104620000D03*
%TO.N,GPIO_FLAG_1*%
X147380000Y-107160000D03*
%TO.N,GPIO_FLAG_2*%
X155000000Y-107160000D03*
%TO.N,PWM1*%
X155000000Y-104620000D03*
%TO.N,MOSI*%
X155000000Y-102080000D03*
%TO.N,MISO*%
X155000000Y-99540000D03*
%TO.N,SCK*%
X155000000Y-97000000D03*
%TO.N,5V*%
X155000000Y-94460000D03*
X155000000Y-91920000D03*
%TO.N,GND*%
X155000000Y-89380000D03*
%TO.N,Net-(J2-Pin_1)*%
X155000000Y-86840000D03*
%TO.N,Net-(J2-Pin_2)*%
X155000000Y-84300000D03*
%TO.N,Net-(J2-Pin_3)*%
X155000000Y-81760000D03*
%TO.N,Net-(J2-Pin_4)*%
X155000000Y-79220000D03*
%TO.N,Net-(J2-Pin_5)*%
X155000000Y-76680000D03*
%TO.N,Net-(J2-Pin_6)*%
X155000000Y-74140000D03*
%TD*%
D21*
%TO.N,Net-(U1-XTAL2{slash}PB7)*%
%TO.C,Y1*%
X135755000Y-99730000D03*
%TO.N,Net-(U1-XTAL1{slash}PB6)*%
X135755000Y-102270000D03*
%TD*%
D22*
%TO.N,Net-(J8-Pin_1)*%
%TO.C,J8*%
X162500000Y-153000000D03*
D15*
%TO.N,Net-(J8-Pin_2)*%
X157500000Y-153000000D03*
%TO.N,Net-(J8-Pin_3)*%
X152500000Y-153000000D03*
%TO.N,Net-(J8-Pin_4)*%
X147500000Y-153000000D03*
%TO.N,Net-(J8-Pin_5)*%
X142500000Y-153000000D03*
%TO.N,Net-(J8-Pin_6)*%
X137500000Y-153000000D03*
%TD*%
D23*
%TO.N,Net-(J7-Pin_1)*%
%TO.C,J7*%
X205000000Y-122500000D03*
D24*
%TO.N,Net-(J7-Pin_2)*%
X205000000Y-125000000D03*
%TO.N,Net-(J7-Pin_3)*%
X205000000Y-127500000D03*
%TO.N,Net-(J7-Pin_4)*%
X205000000Y-130000000D03*
%TO.N,Net-(J7-Pin_5)*%
X205000000Y-132500000D03*
%TO.N,Net-(J7-Pin_6)*%
X205000000Y-135000000D03*
%TO.N,Net-(J7-Pin_7)*%
X205000000Y-137500000D03*
%TO.N,Net-(J7-Pin_8)*%
X205000000Y-140000000D03*
%TD*%
D25*
%TO.N,5V*%
%TO.C,BZ1*%
X120900000Y-116000000D03*
D18*
%TO.N,Net-(BZ1--)*%
X128500000Y-116000000D03*
%TD*%
D13*
%TO.N,Net-(U1-XTAL1{slash}PB6)*%
%TO.C,C3*%
X136250000Y-106000000D03*
%TO.N,GND*%
X138750000Y-106000000D03*
%TD*%
%TO.N,Net-(U2-IN)*%
%TO.C,C8*%
X171250000Y-43500000D03*
%TO.N,GND*%
X173750000Y-43500000D03*
%TD*%
D26*
%TO.N,GND*%
%TO.C,Q1*%
X111740000Y-114770000D03*
D27*
%TO.N,Net-(Q1-G)*%
X113010000Y-114770000D03*
%TO.N,Net-(BZ1--)*%
X114280000Y-114770000D03*
%TD*%
D13*
%TO.N,Net-(U4-VCC1)*%
%TO.C,C9*%
X135750000Y-127000000D03*
%TO.N,GND*%
X138250000Y-127000000D03*
%TD*%
%TO.N,5V*%
%TO.C,C6*%
X151750000Y-66000000D03*
%TO.N,GND*%
X154250000Y-66000000D03*
%TD*%
D28*
%TO.N,Net-(J6-Pin_1)*%
%TO.C,J6*%
X183000000Y-140000000D03*
D24*
%TO.N,Net-(J6-Pin_2)*%
X183000000Y-137500000D03*
%TO.N,Net-(J6-Pin_3)*%
X183000000Y-135000000D03*
%TO.N,Net-(J6-Pin_4)*%
X183000000Y-132500000D03*
%TO.N,Net-(J6-Pin_5)*%
X183000000Y-130000000D03*
%TO.N,Net-(J6-Pin_6)*%
X183000000Y-127500000D03*
%TO.N,Net-(J6-Pin_7)*%
X183000000Y-125000000D03*
%TO.N,Net-(J6-Pin_8)*%
X183000000Y-122500000D03*
%TD*%
D23*
%TO.N,Net-(J1-Pin_1)*%
%TO.C,J1*%
X141500000Y-77500000D03*
D24*
%TO.N,Net-(J1-Pin_2)*%
X141500000Y-80000000D03*
%TO.N,Net-(J1-Pin_3)*%
X141500000Y-82500000D03*
%TO.N,Net-(J1-Pin_4)*%
X141500000Y-85000000D03*
%TO.N,Net-(J1-Pin_5)*%
X141500000Y-87500000D03*
%TO.N,Net-(J1-Pin_6)*%
X141500000Y-90000000D03*
%TO.N,Net-(J1-Pin_7)*%
X141500000Y-92500000D03*
%TO.N,Net-(J1-Pin_8)*%
X141500000Y-95000000D03*
%TD*%
D13*
%TO.N,Net-(U1-XTAL2{slash}PB7)*%
%TO.C,C2*%
X135000000Y-97000000D03*
%TO.N,GND*%
X135000000Y-94500000D03*
%TD*%
%TO.N,5V*%
%TO.C,C4*%
X152100000Y-68570000D03*
%TO.N,GND*%
X154600000Y-68570000D03*
%TD*%
D19*
%TO.N,Net-(J6-Pin_8)*%
%TO.C,U5*%
X189880000Y-122220000D03*
D13*
%TO.N,Net-(J6-Pin_7)*%
X189880000Y-124760000D03*
%TO.N,Net-(J6-Pin_6)*%
X189880000Y-127300000D03*
%TO.N,Net-(J6-Pin_5)*%
X189880000Y-129840000D03*
%TO.N,Net-(J6-Pin_4)*%
X189880000Y-132380000D03*
%TO.N,Net-(J6-Pin_3)*%
X189880000Y-134920000D03*
%TO.N,Net-(J6-Pin_2)*%
X189880000Y-137460000D03*
%TO.N,Net-(J6-Pin_1)*%
X189880000Y-140000000D03*
%TO.N,GND*%
X189880000Y-142540000D03*
%TO.N,12V*%
X197500000Y-142540000D03*
%TO.N,Net-(J7-Pin_8)*%
X197500000Y-140000000D03*
%TO.N,Net-(J7-Pin_7)*%
X197500000Y-137460000D03*
%TO.N,Net-(J7-Pin_6)*%
X197500000Y-134920000D03*
%TO.N,Net-(J7-Pin_5)*%
X197500000Y-132380000D03*
%TO.N,Net-(J7-Pin_4)*%
X197500000Y-129840000D03*
%TO.N,Net-(J7-Pin_3)*%
X197500000Y-127300000D03*
%TO.N,Net-(J7-Pin_2)*%
X197500000Y-124760000D03*
%TO.N,Net-(J7-Pin_1)*%
X197500000Y-122220000D03*
%TD*%
%TO.N,5V*%
%TO.C,R3*%
X113380000Y-89500000D03*
%TO.N,Reset*%
X121000000Y-89500000D03*
%TD*%
D29*
%TO.N,Net-(U2-IN)*%
%TO.C,U2*%
X179960000Y-60730000D03*
D30*
%TO.N,GND*%
X182500000Y-60730000D03*
%TO.N,5V*%
X185040000Y-60730000D03*
%TD*%
D13*
%TO.N,PWM1*%
%TO.C,R4*%
X177200000Y-79150000D03*
%TO.N,Net-(Q1-G)*%
X184820000Y-79150000D03*
%TD*%
D31*
%TO.N,PWM1*%
X165365500Y-101929900D03*
%TO.N,Net-(Q1-G)*%
X113309400Y-92418200D03*
%TO.N,SCK*%
X165520300Y-96275200D03*
%TO.N,Reset*%
X121066300Y-69680100D03*
X164501700Y-96467200D03*
X150706500Y-96066300D03*
%TO.N,Net-(C7-Pad1)*%
X142440200Y-54817800D03*
%TO.N,GND*%
X114069300Y-71135700D03*
X110250000Y-81407300D03*
%TD*%
D32*
%TO.N,PWM1*%
X177200000Y-90095400D02*
X165365500Y-101929900D01*
X177200000Y-79150000D02*
X177200000Y-90095400D01*
%TO.N,Net-(Q1-G)*%
X113010000Y-92717600D02*
X113309400Y-92418200D01*
X113010000Y-114770000D02*
X113010000Y-92717600D01*
%TO.N,Net-(J8-Pin_3)*%
X151857900Y-152357900D02*
X152500000Y-153000000D01*
X151857900Y-143142100D02*
X151857900Y-152357900D01*
X153000000Y-142000000D02*
X151857900Y-143142100D01*
%TO.N,Net-(J8-Pin_5)*%
X142500000Y-144880000D02*
X145380000Y-142000000D01*
X142500000Y-153000000D02*
X142500000Y-144880000D01*
%TO.N,Net-(J8-Pin_2)*%
X157500000Y-133800000D02*
X157500000Y-153000000D01*
X153000000Y-129300000D02*
X157500000Y-133800000D01*
%TO.N,Net-(J8-Pin_4)*%
X147500000Y-128880000D02*
X147500000Y-153000000D01*
X145380000Y-126760000D02*
X147500000Y-128880000D01*
%TO.N,Net-(J8-Pin_6)*%
X140581700Y-129300000D02*
X145380000Y-129300000D01*
X136783000Y-133098700D02*
X140581700Y-129300000D01*
X136783000Y-152283000D02*
X136783000Y-133098700D01*
X137500000Y-153000000D02*
X136783000Y-152283000D01*
%TO.N,Net-(J1-Pin_7)*%
X141500000Y-92500000D02*
X141500000Y-93651700D01*
X145572000Y-100272000D02*
X147380000Y-102080000D01*
X145572000Y-97293900D02*
X145572000Y-100272000D01*
X141929800Y-93651700D02*
X145572000Y-97293900D01*
X141500000Y-93651700D02*
X141929800Y-93651700D01*
%TO.N,Net-(J1-Pin_8)*%
X141500000Y-98740000D02*
X147380000Y-104620000D01*
X141500000Y-95000000D02*
X141500000Y-98740000D01*
%TO.N,Net-(J1-Pin_6)*%
X141951700Y-91151700D02*
X141500000Y-91151700D01*
X146204100Y-95404100D02*
X141951700Y-91151700D01*
X146204100Y-98364100D02*
X146204100Y-95404100D01*
X147380000Y-99540000D02*
X146204100Y-98364100D01*
X141500000Y-90000000D02*
X141500000Y-91151700D01*
%TO.N,Reset*%
X121066300Y-89433700D02*
X121066300Y-69680100D01*
X121000000Y-89500000D02*
X121066300Y-89433700D01*
X150706500Y-77466500D02*
X147380000Y-74140000D01*
X150706500Y-96066300D02*
X150706500Y-77466500D01*
%TO.N,Net-(U2-IN)*%
X178705800Y-50955800D02*
X171250000Y-43500000D01*
X178705800Y-60730000D02*
X178705800Y-50955800D01*
X179960000Y-60730000D02*
X178705800Y-60730000D01*
%TO.N,Net-(C7-Pad1)*%
X145000000Y-52258000D02*
X145000000Y-42000000D01*
X142440200Y-54817800D02*
X145000000Y-52258000D01*
%TO.N,Net-(U1-XTAL1{slash}PB6)*%
X136250000Y-102765000D02*
X136250000Y-106000000D01*
X135755000Y-102270000D02*
X136250000Y-102765000D01*
%TO.N,Net-(U1-XTAL2{slash}PB7)*%
X135755000Y-97755000D02*
X135755000Y-99730000D01*
X135000000Y-97000000D02*
X135755000Y-97755000D01*
%TO.N,GND*%
X145380000Y-136920000D02*
X145380000Y-134380000D01*
X154350000Y-59600000D02*
X154350000Y-62570000D01*
X154250000Y-59500000D02*
X154350000Y-59600000D01*
X110250000Y-114106700D02*
X110913300Y-114770000D01*
X110250000Y-90000000D02*
X110250000Y-114106700D01*
X198500000Y-99500000D02*
X198500000Y-95030000D01*
X138250000Y-106500000D02*
X138750000Y-106000000D01*
X138250000Y-127000000D02*
X138250000Y-106500000D01*
X153000000Y-136920000D02*
X153000000Y-134380000D01*
X110250000Y-81407300D02*
X110250000Y-90000000D01*
X147500000Y-52750000D02*
X154250000Y-59500000D01*
X147500000Y-42000000D02*
X147500000Y-52750000D01*
X154250000Y-68220000D02*
X154250000Y-66000000D01*
X154600000Y-68570000D02*
X154250000Y-68220000D01*
X153868000Y-88248000D02*
X155000000Y-89380000D01*
X153868000Y-69302000D02*
X153868000Y-88248000D01*
X154600000Y-68570000D02*
X153868000Y-69302000D01*
X138750000Y-98250000D02*
X138750000Y-106000000D01*
X135000000Y-94500000D02*
X138750000Y-98250000D01*
X111618000Y-128669700D02*
X111618000Y-114770000D01*
X117848300Y-134900000D02*
X111618000Y-128669700D01*
X111740000Y-114770000D02*
X111618000Y-114770000D01*
X111618000Y-114770000D02*
X110913300Y-114770000D01*
X119050000Y-134900000D02*
X117848300Y-134900000D01*
X110250000Y-74955000D02*
X114069300Y-71135700D01*
X110250000Y-81407300D02*
X110250000Y-74955000D01*
X118000000Y-67205000D02*
X118000000Y-47500000D01*
X114069300Y-71135700D02*
X118000000Y-67205000D01*
X154250000Y-62670000D02*
X154250000Y-66000000D01*
X154350000Y-62570000D02*
X154250000Y-62670000D01*
%TO.N,5V*%
X120900000Y-96707500D02*
X120900000Y-116000000D01*
X113692500Y-89500000D02*
X120900000Y-96707500D01*
X113380000Y-89500000D02*
X113692500Y-89500000D01*
X155000000Y-94460000D02*
X155000000Y-91920000D01*
X151750000Y-62139900D02*
X151750000Y-66000000D01*
X151750000Y-62470000D02*
X151750000Y-62139900D01*
X151850000Y-62570000D02*
X151750000Y-62470000D01*
X151750000Y-62139900D02*
X151750000Y-59500000D01*
X151750000Y-68220000D02*
X151750000Y-66000000D01*
X152100000Y-68570000D02*
X151750000Y-68220000D01*
X152100000Y-89020000D02*
X155000000Y-91920000D01*
X152100000Y-68570000D02*
X152100000Y-89020000D01*
%TD*%
M02*
