%TF.GenerationSoftware,KiCad,Pcbnew,9.0.5*%
%TF.CreationDate,2026-03-01T18:55:26+05:30*%
%TF.ProjectId,SEM4,53454d34-2e6b-4696-9361-645f70636258,rev?*%
%TF.SameCoordinates,Original*%
%TF.FileFunction,Soldermask,Top*%
%TF.FilePolarity,Negative*%
%FSLAX46Y46*%
G04 Gerber Fmt 4.6, Leading zero omitted, Abs format (unit mm)*
G04 Created by KiCad (PCBNEW 9.0.5) date 2026-03-01 18:55:26*
%MOMM*%
%LPD*%
G01*
G04 APERTURE LIST*
G04 Aperture macros list*
%AMRoundRect*
0 Rectangle with rounded corners*
0 $1 Rounding radius*
0 $2 $3 $4 $5 $6 $7 $8 $9 X,Y pos of 4 corners*
0 Add a 4 corners polygon primitive as box body*
4,1,4,$2,$3,$4,$5,$6,$7,$8,$9,$2,$3,0*
0 Add four circle primitives for the rounded corners*
1,1,$1+$1,$2,$3*
1,1,$1+$1,$4,$5*
1,1,$1+$1,$6,$7*
1,1,$1+$1,$8,$9*
0 Add four rect primitives between the rounded corners*
20,1,$1+$1,$2,$3,$4,$5,0*
20,1,$1+$1,$4,$5,$6,$7,0*
20,1,$1+$1,$6,$7,$8,$9,0*
20,1,$1+$1,$8,$9,$2,$3,0*%
G04 Aperture macros list end*
%ADD10R,1.800000X4.400000*%
%ADD11O,1.800000X4.000000*%
%ADD12O,4.000000X1.800000*%
%ADD13C,0.990600*%
%ADD14C,0.787400*%
%ADD15C,1.600000*%
%ADD16RoundRect,0.250001X1.149999X-1.149999X1.149999X1.149999X-1.149999X1.149999X-1.149999X-1.149999X0*%
%ADD17C,2.800000*%
%ADD18R,1.800000X1.800000*%
%ADD19C,1.800000*%
%ADD20C,2.000000*%
%ADD21RoundRect,0.250000X-0.550000X-0.550000X0.550000X-0.550000X0.550000X0.550000X-0.550000X0.550000X0*%
%ADD22RoundRect,0.250001X-1.149999X1.149999X-1.149999X-1.149999X1.149999X-1.149999X1.149999X1.149999X0*%
%ADD23RoundRect,0.375000X-0.625000X-0.375000X0.625000X-0.375000X0.625000X0.375000X-0.625000X0.375000X0*%
%ADD24RoundRect,0.500000X-0.500000X-1.400000X0.500000X-1.400000X0.500000X1.400000X-0.500000X1.400000X0*%
%ADD25R,1.200000X2.500000*%
%ADD26C,1.000000*%
%ADD27RoundRect,0.250001X1.149999X1.149999X-1.149999X1.149999X-1.149999X-1.149999X1.149999X-1.149999X0*%
%ADD28RoundRect,0.250000X-0.725000X0.600000X-0.725000X-0.600000X0.725000X-0.600000X0.725000X0.600000X0*%
%ADD29O,1.950000X1.700000*%
%ADD30R,2.000000X2.000000*%
%ADD31R,1.050000X1.500000*%
%ADD32O,1.050000X1.500000*%
%ADD33RoundRect,0.250000X0.725000X-0.600000X0.725000X0.600000X-0.725000X0.600000X-0.725000X-0.600000X0*%
%ADD34RoundRect,0.175000X0.225000X-0.175000X0.225000X0.175000X-0.225000X0.175000X-0.225000X-0.175000X0*%
%ADD35RoundRect,0.150000X0.275000X-0.150000X0.275000X0.150000X-0.275000X0.150000X-0.275000X-0.150000X0*%
%ADD36C,3.500000*%
%ADD37R,1.905000X2.000000*%
%ADD38O,1.905000X2.000000*%
G04 APERTURE END LIST*
D10*
%TO.C,J3*%
X123800000Y-47500000D03*
D11*
X118000000Y-47500000D03*
D12*
X120800000Y-52300000D03*
%TD*%
D10*
%TO.C,J4*%
X124850000Y-134900000D03*
D11*
X119050000Y-134900000D03*
D12*
X121850000Y-139700000D03*
%TD*%
D13*
%TO.C,J5*%
X162865000Y-99770000D03*
X161849000Y-94690000D03*
X163881000Y-94690000D03*
D14*
X163500000Y-98500000D03*
X162230000Y-98500000D03*
X163500000Y-97230000D03*
X162230000Y-97230000D03*
X163500000Y-95960000D03*
X162230000Y-95960000D03*
%TD*%
D15*
%TO.C,C1*%
X151750000Y-59500000D03*
X154250000Y-59500000D03*
%TD*%
D16*
%TO.C,J10*%
X160500000Y-137000000D03*
D17*
X160500000Y-132000000D03*
%TD*%
D18*
%TO.C,D2*%
X198500000Y-99500000D03*
D19*
X201040000Y-99500000D03*
%TD*%
D15*
%TO.C,C5*%
X151850000Y-62570000D03*
X154350000Y-62570000D03*
%TD*%
D20*
%TO.C,FB1*%
X160500000Y-44500000D03*
X164500000Y-44500000D03*
%TD*%
D15*
%TO.C,C7*%
X145000000Y-42000000D03*
X147500000Y-42000000D03*
%TD*%
D18*
%TO.C,D1*%
X198500000Y-95030000D03*
D19*
X201040000Y-95030000D03*
%TD*%
D15*
%TO.C,C10*%
X107750000Y-90000000D03*
X110250000Y-90000000D03*
%TD*%
%TO.C,R2*%
X185960000Y-99080000D03*
X193580000Y-99080000D03*
%TD*%
D21*
%TO.C,U4*%
X145380000Y-126760000D03*
D15*
X145380000Y-129300000D03*
X145380000Y-131840000D03*
X145380000Y-134380000D03*
X145380000Y-136920000D03*
X145380000Y-139460000D03*
X145380000Y-142000000D03*
X145380000Y-144540000D03*
X153000000Y-144540000D03*
X153000000Y-142000000D03*
X153000000Y-139460000D03*
X153000000Y-136920000D03*
X153000000Y-134380000D03*
X153000000Y-131840000D03*
X153000000Y-129300000D03*
X153000000Y-126760000D03*
%TD*%
D22*
%TO.C,J9*%
X138500000Y-134500000D03*
D17*
X138500000Y-139500000D03*
%TD*%
D15*
%TO.C,R1*%
X185960000Y-95030000D03*
X193580000Y-95030000D03*
%TD*%
D23*
%TO.C,U3*%
X167350000Y-50200000D03*
X167350000Y-52500000D03*
D24*
X173650000Y-52500000D03*
D23*
X167350000Y-54800000D03*
%TD*%
D25*
%TO.C,SW2*%
X115190000Y-70250000D03*
X115190000Y-82750000D03*
X122810000Y-70250000D03*
X122810000Y-82750000D03*
%TD*%
D21*
%TO.C,U1*%
X147380000Y-74140000D03*
D15*
X147380000Y-76680000D03*
X147380000Y-79220000D03*
X147380000Y-81760000D03*
X147380000Y-84300000D03*
X147380000Y-86840000D03*
X147380000Y-89380000D03*
X147380000Y-91920000D03*
X147380000Y-94460000D03*
X147380000Y-97000000D03*
X147380000Y-99540000D03*
X147380000Y-102080000D03*
X147380000Y-104620000D03*
X147380000Y-107160000D03*
X155000000Y-107160000D03*
X155000000Y-104620000D03*
X155000000Y-102080000D03*
X155000000Y-99540000D03*
X155000000Y-97000000D03*
X155000000Y-94460000D03*
X155000000Y-91920000D03*
X155000000Y-89380000D03*
X155000000Y-86840000D03*
X155000000Y-84300000D03*
X155000000Y-81760000D03*
X155000000Y-79220000D03*
X155000000Y-76680000D03*
X155000000Y-74140000D03*
%TD*%
D26*
%TO.C,Y1*%
X135755000Y-99730000D03*
X135755000Y-102270000D03*
%TD*%
D27*
%TO.C,J8*%
X162500000Y-153000000D03*
D17*
X157500000Y-153000000D03*
X152500000Y-153000000D03*
X147500000Y-153000000D03*
X142500000Y-153000000D03*
X137500000Y-153000000D03*
%TD*%
D28*
%TO.C,J7*%
X205000000Y-122500000D03*
D29*
X205000000Y-125000000D03*
X205000000Y-127500000D03*
X205000000Y-130000000D03*
X205000000Y-132500000D03*
X205000000Y-135000000D03*
X205000000Y-137500000D03*
X205000000Y-140000000D03*
%TD*%
D30*
%TO.C,BZ1*%
X120900000Y-116000000D03*
D20*
X128500000Y-116000000D03*
%TD*%
D15*
%TO.C,C3*%
X136250000Y-106000000D03*
X138750000Y-106000000D03*
%TD*%
%TO.C,C8*%
X171250000Y-43500000D03*
X173750000Y-43500000D03*
%TD*%
D31*
%TO.C,Q1*%
X111740000Y-114770000D03*
D32*
X113010000Y-114770000D03*
X114280000Y-114770000D03*
%TD*%
D15*
%TO.C,C9*%
X135750000Y-127000000D03*
X138250000Y-127000000D03*
%TD*%
%TO.C,C6*%
X151750000Y-66000000D03*
X154250000Y-66000000D03*
%TD*%
D33*
%TO.C,J6*%
X183000000Y-140000000D03*
D29*
X183000000Y-137500000D03*
X183000000Y-135000000D03*
X183000000Y-132500000D03*
X183000000Y-130000000D03*
X183000000Y-127500000D03*
X183000000Y-125000000D03*
X183000000Y-122500000D03*
%TD*%
D34*
%TO.C,J2*%
X163000000Y-83500000D03*
X163000000Y-75200000D03*
D35*
X159225000Y-82350000D03*
X159225000Y-81150000D03*
X159225000Y-79950000D03*
X159225000Y-78750000D03*
X159225000Y-77550000D03*
X159225000Y-76350000D03*
%TD*%
D28*
%TO.C,J1*%
X141500000Y-77500000D03*
D29*
X141500000Y-80000000D03*
X141500000Y-82500000D03*
X141500000Y-85000000D03*
X141500000Y-87500000D03*
X141500000Y-90000000D03*
X141500000Y-92500000D03*
X141500000Y-95000000D03*
%TD*%
D15*
%TO.C,C2*%
X135000000Y-97000000D03*
X135000000Y-94500000D03*
%TD*%
%TO.C,C4*%
X152100000Y-68570000D03*
X154600000Y-68570000D03*
%TD*%
D21*
%TO.C,U5*%
X189880000Y-122220000D03*
D15*
X189880000Y-124760000D03*
X189880000Y-127300000D03*
X189880000Y-129840000D03*
X189880000Y-132380000D03*
X189880000Y-134920000D03*
X189880000Y-137460000D03*
X189880000Y-140000000D03*
X189880000Y-142540000D03*
X197500000Y-142540000D03*
X197500000Y-140000000D03*
X197500000Y-137460000D03*
X197500000Y-134920000D03*
X197500000Y-132380000D03*
X197500000Y-129840000D03*
X197500000Y-127300000D03*
X197500000Y-124760000D03*
X197500000Y-122220000D03*
%TD*%
%TO.C,R3*%
X113380000Y-89500000D03*
X121000000Y-89500000D03*
%TD*%
D36*
%TO.C,U2*%
X182500000Y-44070000D03*
D37*
X179960000Y-60730000D03*
D38*
X182500000Y-60730000D03*
X185040000Y-60730000D03*
%TD*%
D25*
%TO.C,SW1*%
X133690000Y-42250000D03*
X133690000Y-54750000D03*
X141310000Y-42250000D03*
X141310000Y-54750000D03*
%TD*%
D15*
%TO.C,R4*%
X177200000Y-79150000D03*
X184820000Y-79150000D03*
%TD*%
M02*
