M48
; DRILL file {KiCad 9.0.5} date 2026-03-01T18:55:22+0530
; FORMAT={-:-/ absolute / metric / decimal}
; #@! TF.CreationDate,2026-03-01T18:55:22+05:30
; #@! TF.GenerationSoftware,Kicad,Pcbnew,9.0.5
; #@! TF.FileFunction,Plated,1,4,PTH
FMAT,2
METRIC
; #@! TA.AperFunction,Plated,PTH,ViaDrill
T1C0.300
; #@! TA.AperFunction,Plated,PTH,ComponentDrill
T2C0.500
; #@! TA.AperFunction,Plated,PTH,ComponentDrill
T3C0.750
; #@! TA.AperFunction,Plated,PTH,ComponentDrill
T4C0.800
; #@! TA.AperFunction,Plated,PTH,ComponentDrill
T5C0.900
; #@! TA.AperFunction,Plated,PTH,ComponentDrill
T6C0.950
; #@! TA.AperFunction,Plated,PTH,ComponentDrill
T7C1.000
; #@! TA.AperFunction,Plated,PTH,ComponentDrill
T8C1.100
; #@! TA.AperFunction,Plated,PTH,ComponentDrill
T9C1.300
%
G90
G05
T1
X110.25Y-81.407
X113.309Y-92.418
X114.069Y-71.136
X121.066Y-69.68
X142.44Y-54.818
X150.707Y-96.066
X164.502Y-96.467
X165.365Y-101.93
X165.52Y-96.275
T2
X135.755Y-99.73
X135.755Y-102.27
T3
X111.74Y-114.77
X113.01Y-114.77
X114.28Y-114.77
T4
X107.75Y-90.0
X110.25Y-90.0
X113.38Y-89.5
X121.0Y-89.5
X135.0Y-94.5
X135.0Y-97.0
X135.75Y-127.0
X136.25Y-106.0
X138.25Y-127.0
X138.75Y-106.0
X145.0Y-42.0
X145.38Y-126.76
X145.38Y-129.3
X145.38Y-131.84
X145.38Y-134.38
X145.38Y-136.92
X145.38Y-139.46
X145.38Y-142.0
X145.38Y-144.54
X147.38Y-74.14
X147.38Y-76.68
X147.38Y-79.22
X147.38Y-81.76
X147.38Y-84.3
X147.38Y-86.84
X147.38Y-89.38
X147.38Y-91.92
X147.38Y-94.46
X147.38Y-97.0
X147.38Y-99.54
X147.38Y-102.08
X147.38Y-104.62
X147.38Y-107.16
X147.5Y-42.0
X151.75Y-59.5
X151.75Y-66.0
X151.85Y-62.57
X152.1Y-68.57
X153.0Y-126.76
X153.0Y-129.3
X153.0Y-131.84
X153.0Y-134.38
X153.0Y-136.92
X153.0Y-139.46
X153.0Y-142.0
X153.0Y-144.54
X154.25Y-59.5
X154.25Y-66.0
X154.35Y-62.57
X154.6Y-68.57
X155.0Y-74.14
X155.0Y-76.68
X155.0Y-79.22
X155.0Y-81.76
X155.0Y-84.3
X155.0Y-86.84
X155.0Y-89.38
X155.0Y-91.92
X155.0Y-94.46
X155.0Y-97.0
X155.0Y-99.54
X155.0Y-102.08
X155.0Y-104.62
X155.0Y-107.16
X171.25Y-43.5
X173.75Y-43.5
X177.2Y-79.15
X184.82Y-79.15
X185.96Y-95.03
X185.96Y-99.08
X189.88Y-122.22
X189.88Y-124.76
X189.88Y-127.3
X189.88Y-129.84
X189.88Y-132.38
X189.88Y-134.92
X189.88Y-137.46
X189.88Y-140.0
X189.88Y-142.54
X193.58Y-95.03
X193.58Y-99.08
X197.5Y-122.22
X197.5Y-124.76
X197.5Y-127.3
X197.5Y-129.84
X197.5Y-132.38
X197.5Y-134.92
X197.5Y-137.46
X197.5Y-140.0
X197.5Y-142.54
T5
X198.5Y-95.03
X198.5Y-99.5
X201.04Y-95.03
X201.04Y-99.5
T6
X141.5Y-77.5
X141.5Y-80.0
X141.5Y-82.5
X141.5Y-85.0
X141.5Y-87.5
X141.5Y-90.0
X141.5Y-92.5
X141.5Y-95.0
X183.0Y-122.5
X183.0Y-125.0
X183.0Y-127.5
X183.0Y-130.0
X183.0Y-132.5
X183.0Y-135.0
X183.0Y-137.5
X183.0Y-140.0
X205.0Y-122.5
X205.0Y-125.0
X205.0Y-127.5
X205.0Y-130.0
X205.0Y-132.5
X205.0Y-135.0
X205.0Y-137.5
X205.0Y-140.0
T7
X120.9Y-116.0
X128.5Y-116.0
X160.5Y-44.5
X164.5Y-44.5
T8
X179.96Y-60.73
X182.5Y-60.73
X185.04Y-60.73
T9
X137.5Y-153.0
X138.5Y-134.5
X138.5Y-139.5
X142.5Y-153.0
X147.5Y-153.0
X152.5Y-153.0
X157.5Y-153.0
X160.5Y-132.0
X160.5Y-137.0
X162.5Y-153.0
T4
G00X118.0Y-46.4
M15
G01X118.0Y-48.6
M16
G05
G00X119.05Y-133.8
M15
G01X119.05Y-136.0
M16
G05
G00X119.7Y-52.3
M15
G01X121.9Y-52.3
M16
G05
G00X120.75Y-139.7
M15
G01X122.95Y-139.7
M16
G05
G00X123.8Y-46.2
M15
G01X123.8Y-48.8
M16
G05
G00X124.85Y-133.6
M15
G01X124.85Y-136.2
M16
G05
M30
