%TF.GenerationSoftware,KiCad,Pcbnew,9.0.5*%
%TF.CreationDate,2026-03-01T18:55:26+05:30*%
%TF.ProjectId,SEM4,53454d34-2e6b-4696-9361-645f70636258,rev?*%
%TF.SameCoordinates,Original*%
%TF.FileFunction,Legend,Top*%
%TF.FilePolarity,Positive*%
%FSLAX46Y46*%
G04 Gerber Fmt 4.6, Leading zero omitted, Abs format (unit mm)*
G04 Created by KiCad (PCBNEW 9.0.5) date 2026-03-01 18:55:26*
%MOMM*%
%LPD*%
G01*
G04 APERTURE LIST*
%ADD10C,0.100000*%
%ADD11C,0.150000*%
%ADD12C,0.120000*%
G04 APERTURE END LIST*
D10*
X198952381Y-151976760D02*
X199428571Y-151976760D01*
X198857143Y-152262475D02*
X199190476Y-151262475D01*
X199190476Y-151262475D02*
X199523809Y-152262475D01*
X200285714Y-152262475D02*
X200285714Y-151262475D01*
X200285714Y-152214856D02*
X200190476Y-152262475D01*
X200190476Y-152262475D02*
X200000000Y-152262475D01*
X200000000Y-152262475D02*
X199904762Y-152214856D01*
X199904762Y-152214856D02*
X199857143Y-152167236D01*
X199857143Y-152167236D02*
X199809524Y-152071998D01*
X199809524Y-152071998D02*
X199809524Y-151786284D01*
X199809524Y-151786284D02*
X199857143Y-151691046D01*
X199857143Y-151691046D02*
X199904762Y-151643427D01*
X199904762Y-151643427D02*
X200000000Y-151595808D01*
X200000000Y-151595808D02*
X200190476Y-151595808D01*
X200190476Y-151595808D02*
X200285714Y-151643427D01*
X200761905Y-152262475D02*
X200761905Y-151595808D01*
X200761905Y-151262475D02*
X200714286Y-151310094D01*
X200714286Y-151310094D02*
X200761905Y-151357713D01*
X200761905Y-151357713D02*
X200809524Y-151310094D01*
X200809524Y-151310094D02*
X200761905Y-151262475D01*
X200761905Y-151262475D02*
X200761905Y-151357713D01*
X201095238Y-151595808D02*
X201476190Y-151595808D01*
X201238095Y-151262475D02*
X201238095Y-152119617D01*
X201238095Y-152119617D02*
X201285714Y-152214856D01*
X201285714Y-152214856D02*
X201380952Y-152262475D01*
X201380952Y-152262475D02*
X201476190Y-152262475D01*
X201714286Y-151595808D02*
X201952381Y-152262475D01*
X202190476Y-151595808D02*
X201952381Y-152262475D01*
X201952381Y-152262475D02*
X201857143Y-152500570D01*
X201857143Y-152500570D02*
X201809524Y-152548189D01*
X201809524Y-152548189D02*
X201714286Y-152595808D01*
X203000000Y-152262475D02*
X203000000Y-151738665D01*
X203000000Y-151738665D02*
X202952381Y-151643427D01*
X202952381Y-151643427D02*
X202857143Y-151595808D01*
X202857143Y-151595808D02*
X202666667Y-151595808D01*
X202666667Y-151595808D02*
X202571429Y-151643427D01*
X203000000Y-152214856D02*
X202904762Y-152262475D01*
X202904762Y-152262475D02*
X202666667Y-152262475D01*
X202666667Y-152262475D02*
X202571429Y-152214856D01*
X202571429Y-152214856D02*
X202523810Y-152119617D01*
X202523810Y-152119617D02*
X202523810Y-152024379D01*
X202523810Y-152024379D02*
X202571429Y-151929141D01*
X202571429Y-151929141D02*
X202666667Y-151881522D01*
X202666667Y-151881522D02*
X202904762Y-151881522D01*
X202904762Y-151881522D02*
X203000000Y-151833903D01*
X204190477Y-152214856D02*
X204333334Y-152262475D01*
X204333334Y-152262475D02*
X204571429Y-152262475D01*
X204571429Y-152262475D02*
X204666667Y-152214856D01*
X204666667Y-152214856D02*
X204714286Y-152167236D01*
X204714286Y-152167236D02*
X204761905Y-152071998D01*
X204761905Y-152071998D02*
X204761905Y-151976760D01*
X204761905Y-151976760D02*
X204714286Y-151881522D01*
X204714286Y-151881522D02*
X204666667Y-151833903D01*
X204666667Y-151833903D02*
X204571429Y-151786284D01*
X204571429Y-151786284D02*
X204380953Y-151738665D01*
X204380953Y-151738665D02*
X204285715Y-151691046D01*
X204285715Y-151691046D02*
X204238096Y-151643427D01*
X204238096Y-151643427D02*
X204190477Y-151548189D01*
X204190477Y-151548189D02*
X204190477Y-151452951D01*
X204190477Y-151452951D02*
X204238096Y-151357713D01*
X204238096Y-151357713D02*
X204285715Y-151310094D01*
X204285715Y-151310094D02*
X204380953Y-151262475D01*
X204380953Y-151262475D02*
X204619048Y-151262475D01*
X204619048Y-151262475D02*
X204761905Y-151310094D01*
X205619048Y-152262475D02*
X205619048Y-151738665D01*
X205619048Y-151738665D02*
X205571429Y-151643427D01*
X205571429Y-151643427D02*
X205476191Y-151595808D01*
X205476191Y-151595808D02*
X205285715Y-151595808D01*
X205285715Y-151595808D02*
X205190477Y-151643427D01*
X205619048Y-152214856D02*
X205523810Y-152262475D01*
X205523810Y-152262475D02*
X205285715Y-152262475D01*
X205285715Y-152262475D02*
X205190477Y-152214856D01*
X205190477Y-152214856D02*
X205142858Y-152119617D01*
X205142858Y-152119617D02*
X205142858Y-152024379D01*
X205142858Y-152024379D02*
X205190477Y-151929141D01*
X205190477Y-151929141D02*
X205285715Y-151881522D01*
X205285715Y-151881522D02*
X205523810Y-151881522D01*
X205523810Y-151881522D02*
X205619048Y-151833903D01*
X206095239Y-152262475D02*
X206095239Y-151595808D01*
X206095239Y-151691046D02*
X206142858Y-151643427D01*
X206142858Y-151643427D02*
X206238096Y-151595808D01*
X206238096Y-151595808D02*
X206380953Y-151595808D01*
X206380953Y-151595808D02*
X206476191Y-151643427D01*
X206476191Y-151643427D02*
X206523810Y-151738665D01*
X206523810Y-151738665D02*
X206523810Y-152262475D01*
X206523810Y-151738665D02*
X206571429Y-151643427D01*
X206571429Y-151643427D02*
X206666667Y-151595808D01*
X206666667Y-151595808D02*
X206809524Y-151595808D01*
X206809524Y-151595808D02*
X206904763Y-151643427D01*
X206904763Y-151643427D02*
X206952382Y-151738665D01*
X206952382Y-151738665D02*
X206952382Y-152262475D01*
X207857143Y-152262475D02*
X207857143Y-151738665D01*
X207857143Y-151738665D02*
X207809524Y-151643427D01*
X207809524Y-151643427D02*
X207714286Y-151595808D01*
X207714286Y-151595808D02*
X207523810Y-151595808D01*
X207523810Y-151595808D02*
X207428572Y-151643427D01*
X207857143Y-152214856D02*
X207761905Y-152262475D01*
X207761905Y-152262475D02*
X207523810Y-152262475D01*
X207523810Y-152262475D02*
X207428572Y-152214856D01*
X207428572Y-152214856D02*
X207380953Y-152119617D01*
X207380953Y-152119617D02*
X207380953Y-152024379D01*
X207380953Y-152024379D02*
X207428572Y-151929141D01*
X207428572Y-151929141D02*
X207523810Y-151881522D01*
X207523810Y-151881522D02*
X207761905Y-151881522D01*
X207761905Y-151881522D02*
X207857143Y-151833903D01*
X208333334Y-151595808D02*
X208333334Y-152262475D01*
X208333334Y-151691046D02*
X208380953Y-151643427D01*
X208380953Y-151643427D02*
X208476191Y-151595808D01*
X208476191Y-151595808D02*
X208619048Y-151595808D01*
X208619048Y-151595808D02*
X208714286Y-151643427D01*
X208714286Y-151643427D02*
X208761905Y-151738665D01*
X208761905Y-151738665D02*
X208761905Y-152262475D01*
X209238096Y-152262475D02*
X209238096Y-151595808D01*
X209238096Y-151262475D02*
X209190477Y-151310094D01*
X209190477Y-151310094D02*
X209238096Y-151357713D01*
X209238096Y-151357713D02*
X209285715Y-151310094D01*
X209285715Y-151310094D02*
X209238096Y-151262475D01*
X209238096Y-151262475D02*
X209238096Y-151357713D01*
X199928571Y-152872419D02*
X199738095Y-152872419D01*
X199738095Y-152872419D02*
X199642857Y-152920038D01*
X199642857Y-152920038D02*
X199595238Y-152967657D01*
X199595238Y-152967657D02*
X199500000Y-153110514D01*
X199500000Y-153110514D02*
X199452381Y-153300990D01*
X199452381Y-153300990D02*
X199452381Y-153681942D01*
X199452381Y-153681942D02*
X199500000Y-153777180D01*
X199500000Y-153777180D02*
X199547619Y-153824800D01*
X199547619Y-153824800D02*
X199642857Y-153872419D01*
X199642857Y-153872419D02*
X199833333Y-153872419D01*
X199833333Y-153872419D02*
X199928571Y-153824800D01*
X199928571Y-153824800D02*
X199976190Y-153777180D01*
X199976190Y-153777180D02*
X200023809Y-153681942D01*
X200023809Y-153681942D02*
X200023809Y-153443847D01*
X200023809Y-153443847D02*
X199976190Y-153348609D01*
X199976190Y-153348609D02*
X199928571Y-153300990D01*
X199928571Y-153300990D02*
X199833333Y-153253371D01*
X199833333Y-153253371D02*
X199642857Y-153253371D01*
X199642857Y-153253371D02*
X199547619Y-153300990D01*
X199547619Y-153300990D02*
X199500000Y-153348609D01*
X199500000Y-153348609D02*
X199452381Y-153443847D01*
X200642857Y-152872419D02*
X200738095Y-152872419D01*
X200738095Y-152872419D02*
X200833333Y-152920038D01*
X200833333Y-152920038D02*
X200880952Y-152967657D01*
X200880952Y-152967657D02*
X200928571Y-153062895D01*
X200928571Y-153062895D02*
X200976190Y-153253371D01*
X200976190Y-153253371D02*
X200976190Y-153491466D01*
X200976190Y-153491466D02*
X200928571Y-153681942D01*
X200928571Y-153681942D02*
X200880952Y-153777180D01*
X200880952Y-153777180D02*
X200833333Y-153824800D01*
X200833333Y-153824800D02*
X200738095Y-153872419D01*
X200738095Y-153872419D02*
X200642857Y-153872419D01*
X200642857Y-153872419D02*
X200547619Y-153824800D01*
X200547619Y-153824800D02*
X200500000Y-153777180D01*
X200500000Y-153777180D02*
X200452381Y-153681942D01*
X200452381Y-153681942D02*
X200404762Y-153491466D01*
X200404762Y-153491466D02*
X200404762Y-153253371D01*
X200404762Y-153253371D02*
X200452381Y-153062895D01*
X200452381Y-153062895D02*
X200500000Y-152967657D01*
X200500000Y-152967657D02*
X200547619Y-152920038D01*
X200547619Y-152920038D02*
X200642857Y-152872419D01*
X201595238Y-152872419D02*
X201690476Y-152872419D01*
X201690476Y-152872419D02*
X201785714Y-152920038D01*
X201785714Y-152920038D02*
X201833333Y-152967657D01*
X201833333Y-152967657D02*
X201880952Y-153062895D01*
X201880952Y-153062895D02*
X201928571Y-153253371D01*
X201928571Y-153253371D02*
X201928571Y-153491466D01*
X201928571Y-153491466D02*
X201880952Y-153681942D01*
X201880952Y-153681942D02*
X201833333Y-153777180D01*
X201833333Y-153777180D02*
X201785714Y-153824800D01*
X201785714Y-153824800D02*
X201690476Y-153872419D01*
X201690476Y-153872419D02*
X201595238Y-153872419D01*
X201595238Y-153872419D02*
X201500000Y-153824800D01*
X201500000Y-153824800D02*
X201452381Y-153777180D01*
X201452381Y-153777180D02*
X201404762Y-153681942D01*
X201404762Y-153681942D02*
X201357143Y-153491466D01*
X201357143Y-153491466D02*
X201357143Y-153253371D01*
X201357143Y-153253371D02*
X201404762Y-153062895D01*
X201404762Y-153062895D02*
X201452381Y-152967657D01*
X201452381Y-152967657D02*
X201500000Y-152920038D01*
X201500000Y-152920038D02*
X201595238Y-152872419D01*
X202547619Y-152872419D02*
X202642857Y-152872419D01*
X202642857Y-152872419D02*
X202738095Y-152920038D01*
X202738095Y-152920038D02*
X202785714Y-152967657D01*
X202785714Y-152967657D02*
X202833333Y-153062895D01*
X202833333Y-153062895D02*
X202880952Y-153253371D01*
X202880952Y-153253371D02*
X202880952Y-153491466D01*
X202880952Y-153491466D02*
X202833333Y-153681942D01*
X202833333Y-153681942D02*
X202785714Y-153777180D01*
X202785714Y-153777180D02*
X202738095Y-153824800D01*
X202738095Y-153824800D02*
X202642857Y-153872419D01*
X202642857Y-153872419D02*
X202547619Y-153872419D01*
X202547619Y-153872419D02*
X202452381Y-153824800D01*
X202452381Y-153824800D02*
X202404762Y-153777180D01*
X202404762Y-153777180D02*
X202357143Y-153681942D01*
X202357143Y-153681942D02*
X202309524Y-153491466D01*
X202309524Y-153491466D02*
X202309524Y-153253371D01*
X202309524Y-153253371D02*
X202357143Y-153062895D01*
X202357143Y-153062895D02*
X202404762Y-152967657D01*
X202404762Y-152967657D02*
X202452381Y-152920038D01*
X202452381Y-152920038D02*
X202547619Y-152872419D01*
X203261905Y-152967657D02*
X203309524Y-152920038D01*
X203309524Y-152920038D02*
X203404762Y-152872419D01*
X203404762Y-152872419D02*
X203642857Y-152872419D01*
X203642857Y-152872419D02*
X203738095Y-152920038D01*
X203738095Y-152920038D02*
X203785714Y-152967657D01*
X203785714Y-152967657D02*
X203833333Y-153062895D01*
X203833333Y-153062895D02*
X203833333Y-153158133D01*
X203833333Y-153158133D02*
X203785714Y-153300990D01*
X203785714Y-153300990D02*
X203214286Y-153872419D01*
X203214286Y-153872419D02*
X203833333Y-153872419D01*
X204214286Y-152967657D02*
X204261905Y-152920038D01*
X204261905Y-152920038D02*
X204357143Y-152872419D01*
X204357143Y-152872419D02*
X204595238Y-152872419D01*
X204595238Y-152872419D02*
X204690476Y-152920038D01*
X204690476Y-152920038D02*
X204738095Y-152967657D01*
X204738095Y-152967657D02*
X204785714Y-153062895D01*
X204785714Y-153062895D02*
X204785714Y-153158133D01*
X204785714Y-153158133D02*
X204738095Y-153300990D01*
X204738095Y-153300990D02*
X204166667Y-153872419D01*
X204166667Y-153872419D02*
X204785714Y-153872419D01*
X205642857Y-153205752D02*
X205642857Y-153872419D01*
X205404762Y-152824800D02*
X205166667Y-153539085D01*
X205166667Y-153539085D02*
X205785714Y-153539085D01*
X206357143Y-152872419D02*
X206452381Y-152872419D01*
X206452381Y-152872419D02*
X206547619Y-152920038D01*
X206547619Y-152920038D02*
X206595238Y-152967657D01*
X206595238Y-152967657D02*
X206642857Y-153062895D01*
X206642857Y-153062895D02*
X206690476Y-153253371D01*
X206690476Y-153253371D02*
X206690476Y-153491466D01*
X206690476Y-153491466D02*
X206642857Y-153681942D01*
X206642857Y-153681942D02*
X206595238Y-153777180D01*
X206595238Y-153777180D02*
X206547619Y-153824800D01*
X206547619Y-153824800D02*
X206452381Y-153872419D01*
X206452381Y-153872419D02*
X206357143Y-153872419D01*
X206357143Y-153872419D02*
X206261905Y-153824800D01*
X206261905Y-153824800D02*
X206214286Y-153777180D01*
X206214286Y-153777180D02*
X206166667Y-153681942D01*
X206166667Y-153681942D02*
X206119048Y-153491466D01*
X206119048Y-153491466D02*
X206119048Y-153253371D01*
X206119048Y-153253371D02*
X206166667Y-153062895D01*
X206166667Y-153062895D02*
X206214286Y-152967657D01*
X206214286Y-152967657D02*
X206261905Y-152920038D01*
X206261905Y-152920038D02*
X206357143Y-152872419D01*
X207071429Y-152967657D02*
X207119048Y-152920038D01*
X207119048Y-152920038D02*
X207214286Y-152872419D01*
X207214286Y-152872419D02*
X207452381Y-152872419D01*
X207452381Y-152872419D02*
X207547619Y-152920038D01*
X207547619Y-152920038D02*
X207595238Y-152967657D01*
X207595238Y-152967657D02*
X207642857Y-153062895D01*
X207642857Y-153062895D02*
X207642857Y-153158133D01*
X207642857Y-153158133D02*
X207595238Y-153300990D01*
X207595238Y-153300990D02*
X207023810Y-153872419D01*
X207023810Y-153872419D02*
X207642857Y-153872419D01*
X208500000Y-152872419D02*
X208309524Y-152872419D01*
X208309524Y-152872419D02*
X208214286Y-152920038D01*
X208214286Y-152920038D02*
X208166667Y-152967657D01*
X208166667Y-152967657D02*
X208071429Y-153110514D01*
X208071429Y-153110514D02*
X208023810Y-153300990D01*
X208023810Y-153300990D02*
X208023810Y-153681942D01*
X208023810Y-153681942D02*
X208071429Y-153777180D01*
X208071429Y-153777180D02*
X208119048Y-153824800D01*
X208119048Y-153824800D02*
X208214286Y-153872419D01*
X208214286Y-153872419D02*
X208404762Y-153872419D01*
X208404762Y-153872419D02*
X208500000Y-153824800D01*
X208500000Y-153824800D02*
X208547619Y-153777180D01*
X208547619Y-153777180D02*
X208595238Y-153681942D01*
X208595238Y-153681942D02*
X208595238Y-153443847D01*
X208595238Y-153443847D02*
X208547619Y-153348609D01*
X208547619Y-153348609D02*
X208500000Y-153300990D01*
X208500000Y-153300990D02*
X208404762Y-153253371D01*
X208404762Y-153253371D02*
X208214286Y-153253371D01*
X208214286Y-153253371D02*
X208119048Y-153300990D01*
X208119048Y-153300990D02*
X208071429Y-153348609D01*
X208071429Y-153348609D02*
X208023810Y-153443847D01*
X209214286Y-152872419D02*
X209309524Y-152872419D01*
X209309524Y-152872419D02*
X209404762Y-152920038D01*
X209404762Y-152920038D02*
X209452381Y-152967657D01*
X209452381Y-152967657D02*
X209500000Y-153062895D01*
X209500000Y-153062895D02*
X209547619Y-153253371D01*
X209547619Y-153253371D02*
X209547619Y-153491466D01*
X209547619Y-153491466D02*
X209500000Y-153681942D01*
X209500000Y-153681942D02*
X209452381Y-153777180D01*
X209452381Y-153777180D02*
X209404762Y-153824800D01*
X209404762Y-153824800D02*
X209309524Y-153872419D01*
X209309524Y-153872419D02*
X209214286Y-153872419D01*
X209214286Y-153872419D02*
X209119048Y-153824800D01*
X209119048Y-153824800D02*
X209071429Y-153777180D01*
X209071429Y-153777180D02*
X209023810Y-153681942D01*
X209023810Y-153681942D02*
X208976191Y-153491466D01*
X208976191Y-153491466D02*
X208976191Y-153253371D01*
X208976191Y-153253371D02*
X209023810Y-153062895D01*
X209023810Y-153062895D02*
X209071429Y-152967657D01*
X209071429Y-152967657D02*
X209119048Y-152920038D01*
X209119048Y-152920038D02*
X209214286Y-152872419D01*
D11*
X125754819Y-47833333D02*
X126469104Y-47833333D01*
X126469104Y-47833333D02*
X126611961Y-47880952D01*
X126611961Y-47880952D02*
X126707200Y-47976190D01*
X126707200Y-47976190D02*
X126754819Y-48119047D01*
X126754819Y-48119047D02*
X126754819Y-48214285D01*
X125754819Y-47452380D02*
X125754819Y-46833333D01*
X125754819Y-46833333D02*
X126135771Y-47166666D01*
X126135771Y-47166666D02*
X126135771Y-47023809D01*
X126135771Y-47023809D02*
X126183390Y-46928571D01*
X126183390Y-46928571D02*
X126231009Y-46880952D01*
X126231009Y-46880952D02*
X126326247Y-46833333D01*
X126326247Y-46833333D02*
X126564342Y-46833333D01*
X126564342Y-46833333D02*
X126659580Y-46880952D01*
X126659580Y-46880952D02*
X126707200Y-46928571D01*
X126707200Y-46928571D02*
X126754819Y-47023809D01*
X126754819Y-47023809D02*
X126754819Y-47309523D01*
X126754819Y-47309523D02*
X126707200Y-47404761D01*
X126707200Y-47404761D02*
X126659580Y-47452380D01*
X126804819Y-135233333D02*
X127519104Y-135233333D01*
X127519104Y-135233333D02*
X127661961Y-135280952D01*
X127661961Y-135280952D02*
X127757200Y-135376190D01*
X127757200Y-135376190D02*
X127804819Y-135519047D01*
X127804819Y-135519047D02*
X127804819Y-135614285D01*
X127138152Y-134328571D02*
X127804819Y-134328571D01*
X126757200Y-134566666D02*
X127471485Y-134804761D01*
X127471485Y-134804761D02*
X127471485Y-134185714D01*
X165019819Y-97563333D02*
X165734104Y-97563333D01*
X165734104Y-97563333D02*
X165876961Y-97610952D01*
X165876961Y-97610952D02*
X165972200Y-97706190D01*
X165972200Y-97706190D02*
X166019819Y-97849047D01*
X166019819Y-97849047D02*
X166019819Y-97944285D01*
X165019819Y-96610952D02*
X165019819Y-97087142D01*
X165019819Y-97087142D02*
X165496009Y-97134761D01*
X165496009Y-97134761D02*
X165448390Y-97087142D01*
X165448390Y-97087142D02*
X165400771Y-96991904D01*
X165400771Y-96991904D02*
X165400771Y-96753809D01*
X165400771Y-96753809D02*
X165448390Y-96658571D01*
X165448390Y-96658571D02*
X165496009Y-96610952D01*
X165496009Y-96610952D02*
X165591247Y-96563333D01*
X165591247Y-96563333D02*
X165829342Y-96563333D01*
X165829342Y-96563333D02*
X165924580Y-96610952D01*
X165924580Y-96610952D02*
X165972200Y-96658571D01*
X165972200Y-96658571D02*
X166019819Y-96753809D01*
X166019819Y-96753809D02*
X166019819Y-96991904D01*
X166019819Y-96991904D02*
X165972200Y-97087142D01*
X165972200Y-97087142D02*
X165924580Y-97134761D01*
X149333333Y-59859580D02*
X149285714Y-59907200D01*
X149285714Y-59907200D02*
X149142857Y-59954819D01*
X149142857Y-59954819D02*
X149047619Y-59954819D01*
X149047619Y-59954819D02*
X148904762Y-59907200D01*
X148904762Y-59907200D02*
X148809524Y-59811961D01*
X148809524Y-59811961D02*
X148761905Y-59716723D01*
X148761905Y-59716723D02*
X148714286Y-59526247D01*
X148714286Y-59526247D02*
X148714286Y-59383390D01*
X148714286Y-59383390D02*
X148761905Y-59192914D01*
X148761905Y-59192914D02*
X148809524Y-59097676D01*
X148809524Y-59097676D02*
X148904762Y-59002438D01*
X148904762Y-59002438D02*
X149047619Y-58954819D01*
X149047619Y-58954819D02*
X149142857Y-58954819D01*
X149142857Y-58954819D02*
X149285714Y-59002438D01*
X149285714Y-59002438D02*
X149333333Y-59050057D01*
X150285714Y-59954819D02*
X149714286Y-59954819D01*
X150000000Y-59954819D02*
X150000000Y-58954819D01*
X150000000Y-58954819D02*
X149904762Y-59097676D01*
X149904762Y-59097676D02*
X149809524Y-59192914D01*
X149809524Y-59192914D02*
X149714286Y-59240533D01*
X154834819Y-135559523D02*
X155549104Y-135559523D01*
X155549104Y-135559523D02*
X155691961Y-135607142D01*
X155691961Y-135607142D02*
X155787200Y-135702380D01*
X155787200Y-135702380D02*
X155834819Y-135845237D01*
X155834819Y-135845237D02*
X155834819Y-135940475D01*
X155834819Y-134559523D02*
X155834819Y-135130951D01*
X155834819Y-134845237D02*
X154834819Y-134845237D01*
X154834819Y-134845237D02*
X154977676Y-134940475D01*
X154977676Y-134940475D02*
X155072914Y-135035713D01*
X155072914Y-135035713D02*
X155120533Y-135130951D01*
X154834819Y-133940475D02*
X154834819Y-133845237D01*
X154834819Y-133845237D02*
X154882438Y-133749999D01*
X154882438Y-133749999D02*
X154930057Y-133702380D01*
X154930057Y-133702380D02*
X155025295Y-133654761D01*
X155025295Y-133654761D02*
X155215771Y-133607142D01*
X155215771Y-133607142D02*
X155453866Y-133607142D01*
X155453866Y-133607142D02*
X155644342Y-133654761D01*
X155644342Y-133654761D02*
X155739580Y-133702380D01*
X155739580Y-133702380D02*
X155787200Y-133749999D01*
X155787200Y-133749999D02*
X155834819Y-133845237D01*
X155834819Y-133845237D02*
X155834819Y-133940475D01*
X155834819Y-133940475D02*
X155787200Y-134035713D01*
X155787200Y-134035713D02*
X155739580Y-134083332D01*
X155739580Y-134083332D02*
X155644342Y-134130951D01*
X155644342Y-134130951D02*
X155453866Y-134178570D01*
X155453866Y-134178570D02*
X155215771Y-134178570D01*
X155215771Y-134178570D02*
X155025295Y-134130951D01*
X155025295Y-134130951D02*
X154930057Y-134083332D01*
X154930057Y-134083332D02*
X154882438Y-134035713D01*
X154882438Y-134035713D02*
X154834819Y-133940475D01*
X202761905Y-99954819D02*
X202761905Y-98954819D01*
X202761905Y-98954819D02*
X203000000Y-98954819D01*
X203000000Y-98954819D02*
X203142857Y-99002438D01*
X203142857Y-99002438D02*
X203238095Y-99097676D01*
X203238095Y-99097676D02*
X203285714Y-99192914D01*
X203285714Y-99192914D02*
X203333333Y-99383390D01*
X203333333Y-99383390D02*
X203333333Y-99526247D01*
X203333333Y-99526247D02*
X203285714Y-99716723D01*
X203285714Y-99716723D02*
X203238095Y-99811961D01*
X203238095Y-99811961D02*
X203142857Y-99907200D01*
X203142857Y-99907200D02*
X203000000Y-99954819D01*
X203000000Y-99954819D02*
X202761905Y-99954819D01*
X203714286Y-99050057D02*
X203761905Y-99002438D01*
X203761905Y-99002438D02*
X203857143Y-98954819D01*
X203857143Y-98954819D02*
X204095238Y-98954819D01*
X204095238Y-98954819D02*
X204190476Y-99002438D01*
X204190476Y-99002438D02*
X204238095Y-99050057D01*
X204238095Y-99050057D02*
X204285714Y-99145295D01*
X204285714Y-99145295D02*
X204285714Y-99240533D01*
X204285714Y-99240533D02*
X204238095Y-99383390D01*
X204238095Y-99383390D02*
X203666667Y-99954819D01*
X203666667Y-99954819D02*
X204285714Y-99954819D01*
X156833333Y-62859580D02*
X156785714Y-62907200D01*
X156785714Y-62907200D02*
X156642857Y-62954819D01*
X156642857Y-62954819D02*
X156547619Y-62954819D01*
X156547619Y-62954819D02*
X156404762Y-62907200D01*
X156404762Y-62907200D02*
X156309524Y-62811961D01*
X156309524Y-62811961D02*
X156261905Y-62716723D01*
X156261905Y-62716723D02*
X156214286Y-62526247D01*
X156214286Y-62526247D02*
X156214286Y-62383390D01*
X156214286Y-62383390D02*
X156261905Y-62192914D01*
X156261905Y-62192914D02*
X156309524Y-62097676D01*
X156309524Y-62097676D02*
X156404762Y-62002438D01*
X156404762Y-62002438D02*
X156547619Y-61954819D01*
X156547619Y-61954819D02*
X156642857Y-61954819D01*
X156642857Y-61954819D02*
X156785714Y-62002438D01*
X156785714Y-62002438D02*
X156833333Y-62050057D01*
X157738095Y-61954819D02*
X157261905Y-61954819D01*
X157261905Y-61954819D02*
X157214286Y-62431009D01*
X157214286Y-62431009D02*
X157261905Y-62383390D01*
X157261905Y-62383390D02*
X157357143Y-62335771D01*
X157357143Y-62335771D02*
X157595238Y-62335771D01*
X157595238Y-62335771D02*
X157690476Y-62383390D01*
X157690476Y-62383390D02*
X157738095Y-62431009D01*
X157738095Y-62431009D02*
X157785714Y-62526247D01*
X157785714Y-62526247D02*
X157785714Y-62764342D01*
X157785714Y-62764342D02*
X157738095Y-62859580D01*
X157738095Y-62859580D02*
X157690476Y-62907200D01*
X157690476Y-62907200D02*
X157595238Y-62954819D01*
X157595238Y-62954819D02*
X157357143Y-62954819D01*
X157357143Y-62954819D02*
X157261905Y-62907200D01*
X157261905Y-62907200D02*
X157214286Y-62859580D01*
X161666666Y-40181009D02*
X161333333Y-40181009D01*
X161333333Y-40704819D02*
X161333333Y-39704819D01*
X161333333Y-39704819D02*
X161809523Y-39704819D01*
X162523809Y-40181009D02*
X162666666Y-40228628D01*
X162666666Y-40228628D02*
X162714285Y-40276247D01*
X162714285Y-40276247D02*
X162761904Y-40371485D01*
X162761904Y-40371485D02*
X162761904Y-40514342D01*
X162761904Y-40514342D02*
X162714285Y-40609580D01*
X162714285Y-40609580D02*
X162666666Y-40657200D01*
X162666666Y-40657200D02*
X162571428Y-40704819D01*
X162571428Y-40704819D02*
X162190476Y-40704819D01*
X162190476Y-40704819D02*
X162190476Y-39704819D01*
X162190476Y-39704819D02*
X162523809Y-39704819D01*
X162523809Y-39704819D02*
X162619047Y-39752438D01*
X162619047Y-39752438D02*
X162666666Y-39800057D01*
X162666666Y-39800057D02*
X162714285Y-39895295D01*
X162714285Y-39895295D02*
X162714285Y-39990533D01*
X162714285Y-39990533D02*
X162666666Y-40085771D01*
X162666666Y-40085771D02*
X162619047Y-40133390D01*
X162619047Y-40133390D02*
X162523809Y-40181009D01*
X162523809Y-40181009D02*
X162190476Y-40181009D01*
X163714285Y-40704819D02*
X163142857Y-40704819D01*
X163428571Y-40704819D02*
X163428571Y-39704819D01*
X163428571Y-39704819D02*
X163333333Y-39847676D01*
X163333333Y-39847676D02*
X163238095Y-39942914D01*
X163238095Y-39942914D02*
X163142857Y-39990533D01*
X146083333Y-40309580D02*
X146035714Y-40357200D01*
X146035714Y-40357200D02*
X145892857Y-40404819D01*
X145892857Y-40404819D02*
X145797619Y-40404819D01*
X145797619Y-40404819D02*
X145654762Y-40357200D01*
X145654762Y-40357200D02*
X145559524Y-40261961D01*
X145559524Y-40261961D02*
X145511905Y-40166723D01*
X145511905Y-40166723D02*
X145464286Y-39976247D01*
X145464286Y-39976247D02*
X145464286Y-39833390D01*
X145464286Y-39833390D02*
X145511905Y-39642914D01*
X145511905Y-39642914D02*
X145559524Y-39547676D01*
X145559524Y-39547676D02*
X145654762Y-39452438D01*
X145654762Y-39452438D02*
X145797619Y-39404819D01*
X145797619Y-39404819D02*
X145892857Y-39404819D01*
X145892857Y-39404819D02*
X146035714Y-39452438D01*
X146035714Y-39452438D02*
X146083333Y-39500057D01*
X146416667Y-39404819D02*
X147083333Y-39404819D01*
X147083333Y-39404819D02*
X146654762Y-40404819D01*
X199031905Y-93024819D02*
X199031905Y-92024819D01*
X199031905Y-92024819D02*
X199270000Y-92024819D01*
X199270000Y-92024819D02*
X199412857Y-92072438D01*
X199412857Y-92072438D02*
X199508095Y-92167676D01*
X199508095Y-92167676D02*
X199555714Y-92262914D01*
X199555714Y-92262914D02*
X199603333Y-92453390D01*
X199603333Y-92453390D02*
X199603333Y-92596247D01*
X199603333Y-92596247D02*
X199555714Y-92786723D01*
X199555714Y-92786723D02*
X199508095Y-92881961D01*
X199508095Y-92881961D02*
X199412857Y-92977200D01*
X199412857Y-92977200D02*
X199270000Y-93024819D01*
X199270000Y-93024819D02*
X199031905Y-93024819D01*
X200555714Y-93024819D02*
X199984286Y-93024819D01*
X200270000Y-93024819D02*
X200270000Y-92024819D01*
X200270000Y-92024819D02*
X200174762Y-92167676D01*
X200174762Y-92167676D02*
X200079524Y-92262914D01*
X200079524Y-92262914D02*
X199984286Y-92310533D01*
X108357142Y-88309580D02*
X108309523Y-88357200D01*
X108309523Y-88357200D02*
X108166666Y-88404819D01*
X108166666Y-88404819D02*
X108071428Y-88404819D01*
X108071428Y-88404819D02*
X107928571Y-88357200D01*
X107928571Y-88357200D02*
X107833333Y-88261961D01*
X107833333Y-88261961D02*
X107785714Y-88166723D01*
X107785714Y-88166723D02*
X107738095Y-87976247D01*
X107738095Y-87976247D02*
X107738095Y-87833390D01*
X107738095Y-87833390D02*
X107785714Y-87642914D01*
X107785714Y-87642914D02*
X107833333Y-87547676D01*
X107833333Y-87547676D02*
X107928571Y-87452438D01*
X107928571Y-87452438D02*
X108071428Y-87404819D01*
X108071428Y-87404819D02*
X108166666Y-87404819D01*
X108166666Y-87404819D02*
X108309523Y-87452438D01*
X108309523Y-87452438D02*
X108357142Y-87500057D01*
X109309523Y-88404819D02*
X108738095Y-88404819D01*
X109023809Y-88404819D02*
X109023809Y-87404819D01*
X109023809Y-87404819D02*
X108928571Y-87547676D01*
X108928571Y-87547676D02*
X108833333Y-87642914D01*
X108833333Y-87642914D02*
X108738095Y-87690533D01*
X109928571Y-87404819D02*
X110023809Y-87404819D01*
X110023809Y-87404819D02*
X110119047Y-87452438D01*
X110119047Y-87452438D02*
X110166666Y-87500057D01*
X110166666Y-87500057D02*
X110214285Y-87595295D01*
X110214285Y-87595295D02*
X110261904Y-87785771D01*
X110261904Y-87785771D02*
X110261904Y-88023866D01*
X110261904Y-88023866D02*
X110214285Y-88214342D01*
X110214285Y-88214342D02*
X110166666Y-88309580D01*
X110166666Y-88309580D02*
X110119047Y-88357200D01*
X110119047Y-88357200D02*
X110023809Y-88404819D01*
X110023809Y-88404819D02*
X109928571Y-88404819D01*
X109928571Y-88404819D02*
X109833333Y-88357200D01*
X109833333Y-88357200D02*
X109785714Y-88309580D01*
X109785714Y-88309580D02*
X109738095Y-88214342D01*
X109738095Y-88214342D02*
X109690476Y-88023866D01*
X109690476Y-88023866D02*
X109690476Y-87785771D01*
X109690476Y-87785771D02*
X109738095Y-87595295D01*
X109738095Y-87595295D02*
X109785714Y-87500057D01*
X109785714Y-87500057D02*
X109833333Y-87452438D01*
X109833333Y-87452438D02*
X109928571Y-87404819D01*
X182833333Y-99454819D02*
X182500000Y-98978628D01*
X182261905Y-99454819D02*
X182261905Y-98454819D01*
X182261905Y-98454819D02*
X182642857Y-98454819D01*
X182642857Y-98454819D02*
X182738095Y-98502438D01*
X182738095Y-98502438D02*
X182785714Y-98550057D01*
X182785714Y-98550057D02*
X182833333Y-98645295D01*
X182833333Y-98645295D02*
X182833333Y-98788152D01*
X182833333Y-98788152D02*
X182785714Y-98883390D01*
X182785714Y-98883390D02*
X182738095Y-98931009D01*
X182738095Y-98931009D02*
X182642857Y-98978628D01*
X182642857Y-98978628D02*
X182261905Y-98978628D01*
X183214286Y-98550057D02*
X183261905Y-98502438D01*
X183261905Y-98502438D02*
X183357143Y-98454819D01*
X183357143Y-98454819D02*
X183595238Y-98454819D01*
X183595238Y-98454819D02*
X183690476Y-98502438D01*
X183690476Y-98502438D02*
X183738095Y-98550057D01*
X183738095Y-98550057D02*
X183785714Y-98645295D01*
X183785714Y-98645295D02*
X183785714Y-98740533D01*
X183785714Y-98740533D02*
X183738095Y-98883390D01*
X183738095Y-98883390D02*
X183166667Y-99454819D01*
X183166667Y-99454819D02*
X183785714Y-99454819D01*
X148428095Y-123884819D02*
X148428095Y-124694342D01*
X148428095Y-124694342D02*
X148475714Y-124789580D01*
X148475714Y-124789580D02*
X148523333Y-124837200D01*
X148523333Y-124837200D02*
X148618571Y-124884819D01*
X148618571Y-124884819D02*
X148809047Y-124884819D01*
X148809047Y-124884819D02*
X148904285Y-124837200D01*
X148904285Y-124837200D02*
X148951904Y-124789580D01*
X148951904Y-124789580D02*
X148999523Y-124694342D01*
X148999523Y-124694342D02*
X148999523Y-123884819D01*
X149904285Y-124218152D02*
X149904285Y-124884819D01*
X149666190Y-123837200D02*
X149428095Y-124551485D01*
X149428095Y-124551485D02*
X150047142Y-124551485D01*
X143074819Y-137083333D02*
X143789104Y-137083333D01*
X143789104Y-137083333D02*
X143931961Y-137130952D01*
X143931961Y-137130952D02*
X144027200Y-137226190D01*
X144027200Y-137226190D02*
X144074819Y-137369047D01*
X144074819Y-137369047D02*
X144074819Y-137464285D01*
X144074819Y-136559523D02*
X144074819Y-136369047D01*
X144074819Y-136369047D02*
X144027200Y-136273809D01*
X144027200Y-136273809D02*
X143979580Y-136226190D01*
X143979580Y-136226190D02*
X143836723Y-136130952D01*
X143836723Y-136130952D02*
X143646247Y-136083333D01*
X143646247Y-136083333D02*
X143265295Y-136083333D01*
X143265295Y-136083333D02*
X143170057Y-136130952D01*
X143170057Y-136130952D02*
X143122438Y-136178571D01*
X143122438Y-136178571D02*
X143074819Y-136273809D01*
X143074819Y-136273809D02*
X143074819Y-136464285D01*
X143074819Y-136464285D02*
X143122438Y-136559523D01*
X143122438Y-136559523D02*
X143170057Y-136607142D01*
X143170057Y-136607142D02*
X143265295Y-136654761D01*
X143265295Y-136654761D02*
X143503390Y-136654761D01*
X143503390Y-136654761D02*
X143598628Y-136607142D01*
X143598628Y-136607142D02*
X143646247Y-136559523D01*
X143646247Y-136559523D02*
X143693866Y-136464285D01*
X143693866Y-136464285D02*
X143693866Y-136273809D01*
X143693866Y-136273809D02*
X143646247Y-136178571D01*
X143646247Y-136178571D02*
X143598628Y-136130952D01*
X143598628Y-136130952D02*
X143503390Y-136083333D01*
X189603333Y-93114819D02*
X189270000Y-92638628D01*
X189031905Y-93114819D02*
X189031905Y-92114819D01*
X189031905Y-92114819D02*
X189412857Y-92114819D01*
X189412857Y-92114819D02*
X189508095Y-92162438D01*
X189508095Y-92162438D02*
X189555714Y-92210057D01*
X189555714Y-92210057D02*
X189603333Y-92305295D01*
X189603333Y-92305295D02*
X189603333Y-92448152D01*
X189603333Y-92448152D02*
X189555714Y-92543390D01*
X189555714Y-92543390D02*
X189508095Y-92591009D01*
X189508095Y-92591009D02*
X189412857Y-92638628D01*
X189412857Y-92638628D02*
X189031905Y-92638628D01*
X190555714Y-93114819D02*
X189984286Y-93114819D01*
X190270000Y-93114819D02*
X190270000Y-92114819D01*
X190270000Y-92114819D02*
X190174762Y-92257676D01*
X190174762Y-92257676D02*
X190079524Y-92352914D01*
X190079524Y-92352914D02*
X189984286Y-92400533D01*
X169738095Y-47454819D02*
X169738095Y-48264342D01*
X169738095Y-48264342D02*
X169785714Y-48359580D01*
X169785714Y-48359580D02*
X169833333Y-48407200D01*
X169833333Y-48407200D02*
X169928571Y-48454819D01*
X169928571Y-48454819D02*
X170119047Y-48454819D01*
X170119047Y-48454819D02*
X170214285Y-48407200D01*
X170214285Y-48407200D02*
X170261904Y-48359580D01*
X170261904Y-48359580D02*
X170309523Y-48264342D01*
X170309523Y-48264342D02*
X170309523Y-47454819D01*
X170690476Y-47454819D02*
X171309523Y-47454819D01*
X171309523Y-47454819D02*
X170976190Y-47835771D01*
X170976190Y-47835771D02*
X171119047Y-47835771D01*
X171119047Y-47835771D02*
X171214285Y-47883390D01*
X171214285Y-47883390D02*
X171261904Y-47931009D01*
X171261904Y-47931009D02*
X171309523Y-48026247D01*
X171309523Y-48026247D02*
X171309523Y-48264342D01*
X171309523Y-48264342D02*
X171261904Y-48359580D01*
X171261904Y-48359580D02*
X171214285Y-48407200D01*
X171214285Y-48407200D02*
X171119047Y-48454819D01*
X171119047Y-48454819D02*
X170833333Y-48454819D01*
X170833333Y-48454819D02*
X170738095Y-48407200D01*
X170738095Y-48407200D02*
X170690476Y-48359580D01*
X114341667Y-68332200D02*
X114484524Y-68379819D01*
X114484524Y-68379819D02*
X114722619Y-68379819D01*
X114722619Y-68379819D02*
X114817857Y-68332200D01*
X114817857Y-68332200D02*
X114865476Y-68284580D01*
X114865476Y-68284580D02*
X114913095Y-68189342D01*
X114913095Y-68189342D02*
X114913095Y-68094104D01*
X114913095Y-68094104D02*
X114865476Y-67998866D01*
X114865476Y-67998866D02*
X114817857Y-67951247D01*
X114817857Y-67951247D02*
X114722619Y-67903628D01*
X114722619Y-67903628D02*
X114532143Y-67856009D01*
X114532143Y-67856009D02*
X114436905Y-67808390D01*
X114436905Y-67808390D02*
X114389286Y-67760771D01*
X114389286Y-67760771D02*
X114341667Y-67665533D01*
X114341667Y-67665533D02*
X114341667Y-67570295D01*
X114341667Y-67570295D02*
X114389286Y-67475057D01*
X114389286Y-67475057D02*
X114436905Y-67427438D01*
X114436905Y-67427438D02*
X114532143Y-67379819D01*
X114532143Y-67379819D02*
X114770238Y-67379819D01*
X114770238Y-67379819D02*
X114913095Y-67427438D01*
X115246429Y-67379819D02*
X115484524Y-68379819D01*
X115484524Y-68379819D02*
X115675000Y-67665533D01*
X115675000Y-67665533D02*
X115865476Y-68379819D01*
X115865476Y-68379819D02*
X116103572Y-67379819D01*
X116436905Y-67475057D02*
X116484524Y-67427438D01*
X116484524Y-67427438D02*
X116579762Y-67379819D01*
X116579762Y-67379819D02*
X116817857Y-67379819D01*
X116817857Y-67379819D02*
X116913095Y-67427438D01*
X116913095Y-67427438D02*
X116960714Y-67475057D01*
X116960714Y-67475057D02*
X117008333Y-67570295D01*
X117008333Y-67570295D02*
X117008333Y-67665533D01*
X117008333Y-67665533D02*
X116960714Y-67808390D01*
X116960714Y-67808390D02*
X116389286Y-68379819D01*
X116389286Y-68379819D02*
X117008333Y-68379819D01*
X150428095Y-71264819D02*
X150428095Y-72074342D01*
X150428095Y-72074342D02*
X150475714Y-72169580D01*
X150475714Y-72169580D02*
X150523333Y-72217200D01*
X150523333Y-72217200D02*
X150618571Y-72264819D01*
X150618571Y-72264819D02*
X150809047Y-72264819D01*
X150809047Y-72264819D02*
X150904285Y-72217200D01*
X150904285Y-72217200D02*
X150951904Y-72169580D01*
X150951904Y-72169580D02*
X150999523Y-72074342D01*
X150999523Y-72074342D02*
X150999523Y-71264819D01*
X151999523Y-72264819D02*
X151428095Y-72264819D01*
X151713809Y-72264819D02*
X151713809Y-71264819D01*
X151713809Y-71264819D02*
X151618571Y-71407676D01*
X151618571Y-71407676D02*
X151523333Y-71502914D01*
X151523333Y-71502914D02*
X151428095Y-71550533D01*
X132276309Y-98038628D02*
X132276309Y-98514819D01*
X131942976Y-97514819D02*
X132276309Y-98038628D01*
X132276309Y-98038628D02*
X132609642Y-97514819D01*
X133466785Y-98514819D02*
X132895357Y-98514819D01*
X133181071Y-98514819D02*
X133181071Y-97514819D01*
X133181071Y-97514819D02*
X133085833Y-97657676D01*
X133085833Y-97657676D02*
X132990595Y-97752914D01*
X132990595Y-97752914D02*
X132895357Y-97800533D01*
X149916666Y-157574819D02*
X149916666Y-158289104D01*
X149916666Y-158289104D02*
X149869047Y-158431961D01*
X149869047Y-158431961D02*
X149773809Y-158527200D01*
X149773809Y-158527200D02*
X149630952Y-158574819D01*
X149630952Y-158574819D02*
X149535714Y-158574819D01*
X150535714Y-158003390D02*
X150440476Y-157955771D01*
X150440476Y-157955771D02*
X150392857Y-157908152D01*
X150392857Y-157908152D02*
X150345238Y-157812914D01*
X150345238Y-157812914D02*
X150345238Y-157765295D01*
X150345238Y-157765295D02*
X150392857Y-157670057D01*
X150392857Y-157670057D02*
X150440476Y-157622438D01*
X150440476Y-157622438D02*
X150535714Y-157574819D01*
X150535714Y-157574819D02*
X150726190Y-157574819D01*
X150726190Y-157574819D02*
X150821428Y-157622438D01*
X150821428Y-157622438D02*
X150869047Y-157670057D01*
X150869047Y-157670057D02*
X150916666Y-157765295D01*
X150916666Y-157765295D02*
X150916666Y-157812914D01*
X150916666Y-157812914D02*
X150869047Y-157908152D01*
X150869047Y-157908152D02*
X150821428Y-157955771D01*
X150821428Y-157955771D02*
X150726190Y-158003390D01*
X150726190Y-158003390D02*
X150535714Y-158003390D01*
X150535714Y-158003390D02*
X150440476Y-158051009D01*
X150440476Y-158051009D02*
X150392857Y-158098628D01*
X150392857Y-158098628D02*
X150345238Y-158193866D01*
X150345238Y-158193866D02*
X150345238Y-158384342D01*
X150345238Y-158384342D02*
X150392857Y-158479580D01*
X150392857Y-158479580D02*
X150440476Y-158527200D01*
X150440476Y-158527200D02*
X150535714Y-158574819D01*
X150535714Y-158574819D02*
X150726190Y-158574819D01*
X150726190Y-158574819D02*
X150821428Y-158527200D01*
X150821428Y-158527200D02*
X150869047Y-158479580D01*
X150869047Y-158479580D02*
X150916666Y-158384342D01*
X150916666Y-158384342D02*
X150916666Y-158193866D01*
X150916666Y-158193866D02*
X150869047Y-158098628D01*
X150869047Y-158098628D02*
X150821428Y-158051009D01*
X150821428Y-158051009D02*
X150726190Y-158003390D01*
X207254819Y-131583333D02*
X207969104Y-131583333D01*
X207969104Y-131583333D02*
X208111961Y-131630952D01*
X208111961Y-131630952D02*
X208207200Y-131726190D01*
X208207200Y-131726190D02*
X208254819Y-131869047D01*
X208254819Y-131869047D02*
X208254819Y-131964285D01*
X207254819Y-131202380D02*
X207254819Y-130535714D01*
X207254819Y-130535714D02*
X208254819Y-130964285D01*
X123819047Y-108731009D02*
X123961904Y-108778628D01*
X123961904Y-108778628D02*
X124009523Y-108826247D01*
X124009523Y-108826247D02*
X124057142Y-108921485D01*
X124057142Y-108921485D02*
X124057142Y-109064342D01*
X124057142Y-109064342D02*
X124009523Y-109159580D01*
X124009523Y-109159580D02*
X123961904Y-109207200D01*
X123961904Y-109207200D02*
X123866666Y-109254819D01*
X123866666Y-109254819D02*
X123485714Y-109254819D01*
X123485714Y-109254819D02*
X123485714Y-108254819D01*
X123485714Y-108254819D02*
X123819047Y-108254819D01*
X123819047Y-108254819D02*
X123914285Y-108302438D01*
X123914285Y-108302438D02*
X123961904Y-108350057D01*
X123961904Y-108350057D02*
X124009523Y-108445295D01*
X124009523Y-108445295D02*
X124009523Y-108540533D01*
X124009523Y-108540533D02*
X123961904Y-108635771D01*
X123961904Y-108635771D02*
X123914285Y-108683390D01*
X123914285Y-108683390D02*
X123819047Y-108731009D01*
X123819047Y-108731009D02*
X123485714Y-108731009D01*
X124390476Y-108254819D02*
X125057142Y-108254819D01*
X125057142Y-108254819D02*
X124390476Y-109254819D01*
X124390476Y-109254819D02*
X125057142Y-109254819D01*
X125961904Y-109254819D02*
X125390476Y-109254819D01*
X125676190Y-109254819D02*
X125676190Y-108254819D01*
X125676190Y-108254819D02*
X125580952Y-108397676D01*
X125580952Y-108397676D02*
X125485714Y-108492914D01*
X125485714Y-108492914D02*
X125390476Y-108540533D01*
X120509048Y-113533866D02*
X121270953Y-113533866D01*
X120890000Y-113914819D02*
X120890000Y-113152914D01*
X137333333Y-104309580D02*
X137285714Y-104357200D01*
X137285714Y-104357200D02*
X137142857Y-104404819D01*
X137142857Y-104404819D02*
X137047619Y-104404819D01*
X137047619Y-104404819D02*
X136904762Y-104357200D01*
X136904762Y-104357200D02*
X136809524Y-104261961D01*
X136809524Y-104261961D02*
X136761905Y-104166723D01*
X136761905Y-104166723D02*
X136714286Y-103976247D01*
X136714286Y-103976247D02*
X136714286Y-103833390D01*
X136714286Y-103833390D02*
X136761905Y-103642914D01*
X136761905Y-103642914D02*
X136809524Y-103547676D01*
X136809524Y-103547676D02*
X136904762Y-103452438D01*
X136904762Y-103452438D02*
X137047619Y-103404819D01*
X137047619Y-103404819D02*
X137142857Y-103404819D01*
X137142857Y-103404819D02*
X137285714Y-103452438D01*
X137285714Y-103452438D02*
X137333333Y-103500057D01*
X137666667Y-103404819D02*
X138285714Y-103404819D01*
X138285714Y-103404819D02*
X137952381Y-103785771D01*
X137952381Y-103785771D02*
X138095238Y-103785771D01*
X138095238Y-103785771D02*
X138190476Y-103833390D01*
X138190476Y-103833390D02*
X138238095Y-103881009D01*
X138238095Y-103881009D02*
X138285714Y-103976247D01*
X138285714Y-103976247D02*
X138285714Y-104214342D01*
X138285714Y-104214342D02*
X138238095Y-104309580D01*
X138238095Y-104309580D02*
X138190476Y-104357200D01*
X138190476Y-104357200D02*
X138095238Y-104404819D01*
X138095238Y-104404819D02*
X137809524Y-104404819D01*
X137809524Y-104404819D02*
X137714286Y-104357200D01*
X137714286Y-104357200D02*
X137666667Y-104309580D01*
X172333333Y-41809580D02*
X172285714Y-41857200D01*
X172285714Y-41857200D02*
X172142857Y-41904819D01*
X172142857Y-41904819D02*
X172047619Y-41904819D01*
X172047619Y-41904819D02*
X171904762Y-41857200D01*
X171904762Y-41857200D02*
X171809524Y-41761961D01*
X171809524Y-41761961D02*
X171761905Y-41666723D01*
X171761905Y-41666723D02*
X171714286Y-41476247D01*
X171714286Y-41476247D02*
X171714286Y-41333390D01*
X171714286Y-41333390D02*
X171761905Y-41142914D01*
X171761905Y-41142914D02*
X171809524Y-41047676D01*
X171809524Y-41047676D02*
X171904762Y-40952438D01*
X171904762Y-40952438D02*
X172047619Y-40904819D01*
X172047619Y-40904819D02*
X172142857Y-40904819D01*
X172142857Y-40904819D02*
X172285714Y-40952438D01*
X172285714Y-40952438D02*
X172333333Y-41000057D01*
X172904762Y-41333390D02*
X172809524Y-41285771D01*
X172809524Y-41285771D02*
X172761905Y-41238152D01*
X172761905Y-41238152D02*
X172714286Y-41142914D01*
X172714286Y-41142914D02*
X172714286Y-41095295D01*
X172714286Y-41095295D02*
X172761905Y-41000057D01*
X172761905Y-41000057D02*
X172809524Y-40952438D01*
X172809524Y-40952438D02*
X172904762Y-40904819D01*
X172904762Y-40904819D02*
X173095238Y-40904819D01*
X173095238Y-40904819D02*
X173190476Y-40952438D01*
X173190476Y-40952438D02*
X173238095Y-41000057D01*
X173238095Y-41000057D02*
X173285714Y-41095295D01*
X173285714Y-41095295D02*
X173285714Y-41142914D01*
X173285714Y-41142914D02*
X173238095Y-41238152D01*
X173238095Y-41238152D02*
X173190476Y-41285771D01*
X173190476Y-41285771D02*
X173095238Y-41333390D01*
X173095238Y-41333390D02*
X172904762Y-41333390D01*
X172904762Y-41333390D02*
X172809524Y-41381009D01*
X172809524Y-41381009D02*
X172761905Y-41428628D01*
X172761905Y-41428628D02*
X172714286Y-41523866D01*
X172714286Y-41523866D02*
X172714286Y-41714342D01*
X172714286Y-41714342D02*
X172761905Y-41809580D01*
X172761905Y-41809580D02*
X172809524Y-41857200D01*
X172809524Y-41857200D02*
X172904762Y-41904819D01*
X172904762Y-41904819D02*
X173095238Y-41904819D01*
X173095238Y-41904819D02*
X173190476Y-41857200D01*
X173190476Y-41857200D02*
X173238095Y-41809580D01*
X173238095Y-41809580D02*
X173285714Y-41714342D01*
X173285714Y-41714342D02*
X173285714Y-41523866D01*
X173285714Y-41523866D02*
X173238095Y-41428628D01*
X173238095Y-41428628D02*
X173190476Y-41381009D01*
X173190476Y-41381009D02*
X173095238Y-41333390D01*
X112914761Y-111760057D02*
X112819523Y-111712438D01*
X112819523Y-111712438D02*
X112724285Y-111617200D01*
X112724285Y-111617200D02*
X112581428Y-111474342D01*
X112581428Y-111474342D02*
X112486190Y-111426723D01*
X112486190Y-111426723D02*
X112390952Y-111426723D01*
X112438571Y-111664819D02*
X112343333Y-111617200D01*
X112343333Y-111617200D02*
X112248095Y-111521961D01*
X112248095Y-111521961D02*
X112200476Y-111331485D01*
X112200476Y-111331485D02*
X112200476Y-110998152D01*
X112200476Y-110998152D02*
X112248095Y-110807676D01*
X112248095Y-110807676D02*
X112343333Y-110712438D01*
X112343333Y-110712438D02*
X112438571Y-110664819D01*
X112438571Y-110664819D02*
X112629047Y-110664819D01*
X112629047Y-110664819D02*
X112724285Y-110712438D01*
X112724285Y-110712438D02*
X112819523Y-110807676D01*
X112819523Y-110807676D02*
X112867142Y-110998152D01*
X112867142Y-110998152D02*
X112867142Y-111331485D01*
X112867142Y-111331485D02*
X112819523Y-111521961D01*
X112819523Y-111521961D02*
X112724285Y-111617200D01*
X112724285Y-111617200D02*
X112629047Y-111664819D01*
X112629047Y-111664819D02*
X112438571Y-111664819D01*
X113819523Y-111664819D02*
X113248095Y-111664819D01*
X113533809Y-111664819D02*
X113533809Y-110664819D01*
X113533809Y-110664819D02*
X113438571Y-110807676D01*
X113438571Y-110807676D02*
X113343333Y-110902914D01*
X113343333Y-110902914D02*
X113248095Y-110950533D01*
X136833333Y-125309580D02*
X136785714Y-125357200D01*
X136785714Y-125357200D02*
X136642857Y-125404819D01*
X136642857Y-125404819D02*
X136547619Y-125404819D01*
X136547619Y-125404819D02*
X136404762Y-125357200D01*
X136404762Y-125357200D02*
X136309524Y-125261961D01*
X136309524Y-125261961D02*
X136261905Y-125166723D01*
X136261905Y-125166723D02*
X136214286Y-124976247D01*
X136214286Y-124976247D02*
X136214286Y-124833390D01*
X136214286Y-124833390D02*
X136261905Y-124642914D01*
X136261905Y-124642914D02*
X136309524Y-124547676D01*
X136309524Y-124547676D02*
X136404762Y-124452438D01*
X136404762Y-124452438D02*
X136547619Y-124404819D01*
X136547619Y-124404819D02*
X136642857Y-124404819D01*
X136642857Y-124404819D02*
X136785714Y-124452438D01*
X136785714Y-124452438D02*
X136833333Y-124500057D01*
X137309524Y-125404819D02*
X137500000Y-125404819D01*
X137500000Y-125404819D02*
X137595238Y-125357200D01*
X137595238Y-125357200D02*
X137642857Y-125309580D01*
X137642857Y-125309580D02*
X137738095Y-125166723D01*
X137738095Y-125166723D02*
X137785714Y-124976247D01*
X137785714Y-124976247D02*
X137785714Y-124595295D01*
X137785714Y-124595295D02*
X137738095Y-124500057D01*
X137738095Y-124500057D02*
X137690476Y-124452438D01*
X137690476Y-124452438D02*
X137595238Y-124404819D01*
X137595238Y-124404819D02*
X137404762Y-124404819D01*
X137404762Y-124404819D02*
X137309524Y-124452438D01*
X137309524Y-124452438D02*
X137261905Y-124500057D01*
X137261905Y-124500057D02*
X137214286Y-124595295D01*
X137214286Y-124595295D02*
X137214286Y-124833390D01*
X137214286Y-124833390D02*
X137261905Y-124928628D01*
X137261905Y-124928628D02*
X137309524Y-124976247D01*
X137309524Y-124976247D02*
X137404762Y-125023866D01*
X137404762Y-125023866D02*
X137595238Y-125023866D01*
X137595238Y-125023866D02*
X137690476Y-124976247D01*
X137690476Y-124976247D02*
X137738095Y-124928628D01*
X137738095Y-124928628D02*
X137785714Y-124833390D01*
X149333333Y-66359580D02*
X149285714Y-66407200D01*
X149285714Y-66407200D02*
X149142857Y-66454819D01*
X149142857Y-66454819D02*
X149047619Y-66454819D01*
X149047619Y-66454819D02*
X148904762Y-66407200D01*
X148904762Y-66407200D02*
X148809524Y-66311961D01*
X148809524Y-66311961D02*
X148761905Y-66216723D01*
X148761905Y-66216723D02*
X148714286Y-66026247D01*
X148714286Y-66026247D02*
X148714286Y-65883390D01*
X148714286Y-65883390D02*
X148761905Y-65692914D01*
X148761905Y-65692914D02*
X148809524Y-65597676D01*
X148809524Y-65597676D02*
X148904762Y-65502438D01*
X148904762Y-65502438D02*
X149047619Y-65454819D01*
X149047619Y-65454819D02*
X149142857Y-65454819D01*
X149142857Y-65454819D02*
X149285714Y-65502438D01*
X149285714Y-65502438D02*
X149333333Y-65550057D01*
X150190476Y-65454819D02*
X150000000Y-65454819D01*
X150000000Y-65454819D02*
X149904762Y-65502438D01*
X149904762Y-65502438D02*
X149857143Y-65550057D01*
X149857143Y-65550057D02*
X149761905Y-65692914D01*
X149761905Y-65692914D02*
X149714286Y-65883390D01*
X149714286Y-65883390D02*
X149714286Y-66264342D01*
X149714286Y-66264342D02*
X149761905Y-66359580D01*
X149761905Y-66359580D02*
X149809524Y-66407200D01*
X149809524Y-66407200D02*
X149904762Y-66454819D01*
X149904762Y-66454819D02*
X150095238Y-66454819D01*
X150095238Y-66454819D02*
X150190476Y-66407200D01*
X150190476Y-66407200D02*
X150238095Y-66359580D01*
X150238095Y-66359580D02*
X150285714Y-66264342D01*
X150285714Y-66264342D02*
X150285714Y-66026247D01*
X150285714Y-66026247D02*
X150238095Y-65931009D01*
X150238095Y-65931009D02*
X150190476Y-65883390D01*
X150190476Y-65883390D02*
X150095238Y-65835771D01*
X150095238Y-65835771D02*
X149904762Y-65835771D01*
X149904762Y-65835771D02*
X149809524Y-65883390D01*
X149809524Y-65883390D02*
X149761905Y-65931009D01*
X149761905Y-65931009D02*
X149714286Y-66026247D01*
X179654819Y-131583333D02*
X180369104Y-131583333D01*
X180369104Y-131583333D02*
X180511961Y-131630952D01*
X180511961Y-131630952D02*
X180607200Y-131726190D01*
X180607200Y-131726190D02*
X180654819Y-131869047D01*
X180654819Y-131869047D02*
X180654819Y-131964285D01*
X179654819Y-130678571D02*
X179654819Y-130869047D01*
X179654819Y-130869047D02*
X179702438Y-130964285D01*
X179702438Y-130964285D02*
X179750057Y-131011904D01*
X179750057Y-131011904D02*
X179892914Y-131107142D01*
X179892914Y-131107142D02*
X180083390Y-131154761D01*
X180083390Y-131154761D02*
X180464342Y-131154761D01*
X180464342Y-131154761D02*
X180559580Y-131107142D01*
X180559580Y-131107142D02*
X180607200Y-131059523D01*
X180607200Y-131059523D02*
X180654819Y-130964285D01*
X180654819Y-130964285D02*
X180654819Y-130773809D01*
X180654819Y-130773809D02*
X180607200Y-130678571D01*
X180607200Y-130678571D02*
X180559580Y-130630952D01*
X180559580Y-130630952D02*
X180464342Y-130583333D01*
X180464342Y-130583333D02*
X180226247Y-130583333D01*
X180226247Y-130583333D02*
X180131009Y-130630952D01*
X180131009Y-130630952D02*
X180083390Y-130678571D01*
X180083390Y-130678571D02*
X180035771Y-130773809D01*
X180035771Y-130773809D02*
X180035771Y-130964285D01*
X180035771Y-130964285D02*
X180083390Y-131059523D01*
X180083390Y-131059523D02*
X180131009Y-131107142D01*
X180131009Y-131107142D02*
X180226247Y-131154761D01*
X157047319Y-79683333D02*
X157761604Y-79683333D01*
X157761604Y-79683333D02*
X157904461Y-79730952D01*
X157904461Y-79730952D02*
X157999700Y-79826190D01*
X157999700Y-79826190D02*
X158047319Y-79969047D01*
X158047319Y-79969047D02*
X158047319Y-80064285D01*
X157142557Y-79254761D02*
X157094938Y-79207142D01*
X157094938Y-79207142D02*
X157047319Y-79111904D01*
X157047319Y-79111904D02*
X157047319Y-78873809D01*
X157047319Y-78873809D02*
X157094938Y-78778571D01*
X157094938Y-78778571D02*
X157142557Y-78730952D01*
X157142557Y-78730952D02*
X157237795Y-78683333D01*
X157237795Y-78683333D02*
X157333033Y-78683333D01*
X157333033Y-78683333D02*
X157475890Y-78730952D01*
X157475890Y-78730952D02*
X158047319Y-79302380D01*
X158047319Y-79302380D02*
X158047319Y-78683333D01*
X143754819Y-86583333D02*
X144469104Y-86583333D01*
X144469104Y-86583333D02*
X144611961Y-86630952D01*
X144611961Y-86630952D02*
X144707200Y-86726190D01*
X144707200Y-86726190D02*
X144754819Y-86869047D01*
X144754819Y-86869047D02*
X144754819Y-86964285D01*
X144754819Y-85583333D02*
X144754819Y-86154761D01*
X144754819Y-85869047D02*
X143754819Y-85869047D01*
X143754819Y-85869047D02*
X143897676Y-85964285D01*
X143897676Y-85964285D02*
X143992914Y-86059523D01*
X143992914Y-86059523D02*
X144040533Y-86154761D01*
X133309580Y-95916666D02*
X133357200Y-95964285D01*
X133357200Y-95964285D02*
X133404819Y-96107142D01*
X133404819Y-96107142D02*
X133404819Y-96202380D01*
X133404819Y-96202380D02*
X133357200Y-96345237D01*
X133357200Y-96345237D02*
X133261961Y-96440475D01*
X133261961Y-96440475D02*
X133166723Y-96488094D01*
X133166723Y-96488094D02*
X132976247Y-96535713D01*
X132976247Y-96535713D02*
X132833390Y-96535713D01*
X132833390Y-96535713D02*
X132642914Y-96488094D01*
X132642914Y-96488094D02*
X132547676Y-96440475D01*
X132547676Y-96440475D02*
X132452438Y-96345237D01*
X132452438Y-96345237D02*
X132404819Y-96202380D01*
X132404819Y-96202380D02*
X132404819Y-96107142D01*
X132404819Y-96107142D02*
X132452438Y-95964285D01*
X132452438Y-95964285D02*
X132500057Y-95916666D01*
X132500057Y-95535713D02*
X132452438Y-95488094D01*
X132452438Y-95488094D02*
X132404819Y-95392856D01*
X132404819Y-95392856D02*
X132404819Y-95154761D01*
X132404819Y-95154761D02*
X132452438Y-95059523D01*
X132452438Y-95059523D02*
X132500057Y-95011904D01*
X132500057Y-95011904D02*
X132595295Y-94964285D01*
X132595295Y-94964285D02*
X132690533Y-94964285D01*
X132690533Y-94964285D02*
X132833390Y-95011904D01*
X132833390Y-95011904D02*
X133404819Y-95583332D01*
X133404819Y-95583332D02*
X133404819Y-94964285D01*
X149183333Y-68929580D02*
X149135714Y-68977200D01*
X149135714Y-68977200D02*
X148992857Y-69024819D01*
X148992857Y-69024819D02*
X148897619Y-69024819D01*
X148897619Y-69024819D02*
X148754762Y-68977200D01*
X148754762Y-68977200D02*
X148659524Y-68881961D01*
X148659524Y-68881961D02*
X148611905Y-68786723D01*
X148611905Y-68786723D02*
X148564286Y-68596247D01*
X148564286Y-68596247D02*
X148564286Y-68453390D01*
X148564286Y-68453390D02*
X148611905Y-68262914D01*
X148611905Y-68262914D02*
X148659524Y-68167676D01*
X148659524Y-68167676D02*
X148754762Y-68072438D01*
X148754762Y-68072438D02*
X148897619Y-68024819D01*
X148897619Y-68024819D02*
X148992857Y-68024819D01*
X148992857Y-68024819D02*
X149135714Y-68072438D01*
X149135714Y-68072438D02*
X149183333Y-68120057D01*
X150040476Y-68358152D02*
X150040476Y-69024819D01*
X149802381Y-67977200D02*
X149564286Y-68691485D01*
X149564286Y-68691485D02*
X150183333Y-68691485D01*
X192928095Y-119344819D02*
X192928095Y-120154342D01*
X192928095Y-120154342D02*
X192975714Y-120249580D01*
X192975714Y-120249580D02*
X193023333Y-120297200D01*
X193023333Y-120297200D02*
X193118571Y-120344819D01*
X193118571Y-120344819D02*
X193309047Y-120344819D01*
X193309047Y-120344819D02*
X193404285Y-120297200D01*
X193404285Y-120297200D02*
X193451904Y-120249580D01*
X193451904Y-120249580D02*
X193499523Y-120154342D01*
X193499523Y-120154342D02*
X193499523Y-119344819D01*
X194451904Y-119344819D02*
X193975714Y-119344819D01*
X193975714Y-119344819D02*
X193928095Y-119821009D01*
X193928095Y-119821009D02*
X193975714Y-119773390D01*
X193975714Y-119773390D02*
X194070952Y-119725771D01*
X194070952Y-119725771D02*
X194309047Y-119725771D01*
X194309047Y-119725771D02*
X194404285Y-119773390D01*
X194404285Y-119773390D02*
X194451904Y-119821009D01*
X194451904Y-119821009D02*
X194499523Y-119916247D01*
X194499523Y-119916247D02*
X194499523Y-120154342D01*
X194499523Y-120154342D02*
X194451904Y-120249580D01*
X194451904Y-120249580D02*
X194404285Y-120297200D01*
X194404285Y-120297200D02*
X194309047Y-120344819D01*
X194309047Y-120344819D02*
X194070952Y-120344819D01*
X194070952Y-120344819D02*
X193975714Y-120297200D01*
X193975714Y-120297200D02*
X193928095Y-120249580D01*
X117023333Y-87584819D02*
X116690000Y-87108628D01*
X116451905Y-87584819D02*
X116451905Y-86584819D01*
X116451905Y-86584819D02*
X116832857Y-86584819D01*
X116832857Y-86584819D02*
X116928095Y-86632438D01*
X116928095Y-86632438D02*
X116975714Y-86680057D01*
X116975714Y-86680057D02*
X117023333Y-86775295D01*
X117023333Y-86775295D02*
X117023333Y-86918152D01*
X117023333Y-86918152D02*
X116975714Y-87013390D01*
X116975714Y-87013390D02*
X116928095Y-87061009D01*
X116928095Y-87061009D02*
X116832857Y-87108628D01*
X116832857Y-87108628D02*
X116451905Y-87108628D01*
X117356667Y-86584819D02*
X117975714Y-86584819D01*
X117975714Y-86584819D02*
X117642381Y-86965771D01*
X117642381Y-86965771D02*
X117785238Y-86965771D01*
X117785238Y-86965771D02*
X117880476Y-87013390D01*
X117880476Y-87013390D02*
X117928095Y-87061009D01*
X117928095Y-87061009D02*
X117975714Y-87156247D01*
X117975714Y-87156247D02*
X117975714Y-87394342D01*
X117975714Y-87394342D02*
X117928095Y-87489580D01*
X117928095Y-87489580D02*
X117880476Y-87537200D01*
X117880476Y-87537200D02*
X117785238Y-87584819D01*
X117785238Y-87584819D02*
X117499524Y-87584819D01*
X117499524Y-87584819D02*
X117404286Y-87537200D01*
X117404286Y-87537200D02*
X117356667Y-87489580D01*
X181738095Y-39774819D02*
X181738095Y-40584342D01*
X181738095Y-40584342D02*
X181785714Y-40679580D01*
X181785714Y-40679580D02*
X181833333Y-40727200D01*
X181833333Y-40727200D02*
X181928571Y-40774819D01*
X181928571Y-40774819D02*
X182119047Y-40774819D01*
X182119047Y-40774819D02*
X182214285Y-40727200D01*
X182214285Y-40727200D02*
X182261904Y-40679580D01*
X182261904Y-40679580D02*
X182309523Y-40584342D01*
X182309523Y-40584342D02*
X182309523Y-39774819D01*
X182738095Y-39870057D02*
X182785714Y-39822438D01*
X182785714Y-39822438D02*
X182880952Y-39774819D01*
X182880952Y-39774819D02*
X183119047Y-39774819D01*
X183119047Y-39774819D02*
X183214285Y-39822438D01*
X183214285Y-39822438D02*
X183261904Y-39870057D01*
X183261904Y-39870057D02*
X183309523Y-39965295D01*
X183309523Y-39965295D02*
X183309523Y-40060533D01*
X183309523Y-40060533D02*
X183261904Y-40203390D01*
X183261904Y-40203390D02*
X182690476Y-40774819D01*
X182690476Y-40774819D02*
X183309523Y-40774819D01*
X132841667Y-40332200D02*
X132984524Y-40379819D01*
X132984524Y-40379819D02*
X133222619Y-40379819D01*
X133222619Y-40379819D02*
X133317857Y-40332200D01*
X133317857Y-40332200D02*
X133365476Y-40284580D01*
X133365476Y-40284580D02*
X133413095Y-40189342D01*
X133413095Y-40189342D02*
X133413095Y-40094104D01*
X133413095Y-40094104D02*
X133365476Y-39998866D01*
X133365476Y-39998866D02*
X133317857Y-39951247D01*
X133317857Y-39951247D02*
X133222619Y-39903628D01*
X133222619Y-39903628D02*
X133032143Y-39856009D01*
X133032143Y-39856009D02*
X132936905Y-39808390D01*
X132936905Y-39808390D02*
X132889286Y-39760771D01*
X132889286Y-39760771D02*
X132841667Y-39665533D01*
X132841667Y-39665533D02*
X132841667Y-39570295D01*
X132841667Y-39570295D02*
X132889286Y-39475057D01*
X132889286Y-39475057D02*
X132936905Y-39427438D01*
X132936905Y-39427438D02*
X133032143Y-39379819D01*
X133032143Y-39379819D02*
X133270238Y-39379819D01*
X133270238Y-39379819D02*
X133413095Y-39427438D01*
X133746429Y-39379819D02*
X133984524Y-40379819D01*
X133984524Y-40379819D02*
X134175000Y-39665533D01*
X134175000Y-39665533D02*
X134365476Y-40379819D01*
X134365476Y-40379819D02*
X134603572Y-39379819D01*
X135508333Y-40379819D02*
X134936905Y-40379819D01*
X135222619Y-40379819D02*
X135222619Y-39379819D01*
X135222619Y-39379819D02*
X135127381Y-39522676D01*
X135127381Y-39522676D02*
X135032143Y-39617914D01*
X135032143Y-39617914D02*
X134936905Y-39665533D01*
X180843333Y-77234819D02*
X180510000Y-76758628D01*
X180271905Y-77234819D02*
X180271905Y-76234819D01*
X180271905Y-76234819D02*
X180652857Y-76234819D01*
X180652857Y-76234819D02*
X180748095Y-76282438D01*
X180748095Y-76282438D02*
X180795714Y-76330057D01*
X180795714Y-76330057D02*
X180843333Y-76425295D01*
X180843333Y-76425295D02*
X180843333Y-76568152D01*
X180843333Y-76568152D02*
X180795714Y-76663390D01*
X180795714Y-76663390D02*
X180748095Y-76711009D01*
X180748095Y-76711009D02*
X180652857Y-76758628D01*
X180652857Y-76758628D02*
X180271905Y-76758628D01*
X181700476Y-76568152D02*
X181700476Y-77234819D01*
X181462381Y-76187200D02*
X181224286Y-76901485D01*
X181224286Y-76901485D02*
X181843333Y-76901485D01*
D12*
%TO.C,J3*%
X125100000Y-42600000D02*
X123500000Y-42600000D01*
X124800000Y-42900000D02*
X124800000Y-45000000D01*
X110100000Y-42900000D02*
X124800000Y-42900000D01*
X125100000Y-44300000D02*
X125100000Y-42600000D01*
X124800000Y-50000000D02*
X124800000Y-52100000D01*
X124800000Y-52100000D02*
X123000000Y-52100000D01*
X118600000Y-52100000D02*
X110100000Y-52100000D01*
X110100000Y-52100000D02*
X110100000Y-42900000D01*
%TO.C,J4*%
X126150000Y-130000000D02*
X124550000Y-130000000D01*
X125850000Y-130300000D02*
X125850000Y-132400000D01*
X111150000Y-130300000D02*
X125850000Y-130300000D01*
X126150000Y-131700000D02*
X126150000Y-130000000D01*
X125850000Y-137400000D02*
X125850000Y-139500000D01*
X125850000Y-139500000D02*
X124050000Y-139500000D01*
X119650000Y-139500000D02*
X111150000Y-139500000D01*
X111150000Y-139500000D02*
X111150000Y-130300000D01*
%TO.C,J5*%
X164135000Y-99135000D02*
X163500000Y-99135000D01*
X164135000Y-98500000D02*
X164135000Y-99135000D01*
%TO.C,C1*%
X152235000Y-58580000D02*
X153765000Y-58580000D01*
X153765000Y-60420000D02*
X152235000Y-60420000D01*
%TO.C,J10*%
X156380000Y-129380000D02*
X164420000Y-129380000D01*
X156380000Y-140120000D02*
X156380000Y-129380000D01*
X160000000Y-130188000D02*
X160000000Y-129380000D01*
X160000000Y-135120000D02*
X160000000Y-133812000D01*
X160000000Y-140120000D02*
X160000000Y-138880000D01*
X161000000Y-130188000D02*
X161000000Y-129380000D01*
X161000000Y-135120000D02*
X161000000Y-133812000D01*
X161000000Y-140120000D02*
X161000000Y-138880000D01*
X162300000Y-131457000D02*
X162300000Y-129380000D01*
X162300000Y-135120000D02*
X162300000Y-132543000D01*
X162300000Y-140120000D02*
X162300000Y-138880000D01*
X164420000Y-129380000D02*
X164420000Y-136700000D01*
X164420000Y-137300000D02*
X164420000Y-140120000D01*
X164420000Y-140120000D02*
X156380000Y-140120000D01*
X165030000Y-137440000D02*
X164420000Y-137000000D01*
X165030000Y-136560000D01*
X165030000Y-137440000D01*
G36*
X165030000Y-137440000D02*
G01*
X164420000Y-137000000D01*
X165030000Y-136560000D01*
X165030000Y-137440000D01*
G37*
%TO.C,D2*%
X197710000Y-98040000D02*
X201830000Y-98040000D01*
X197710000Y-98420000D02*
X197710000Y-98040000D01*
X197710000Y-100960000D02*
X197710000Y-100580000D01*
X197830000Y-98040000D02*
X197830000Y-98420000D01*
X197830000Y-100580000D02*
X197830000Y-100960000D01*
X197950000Y-98040000D02*
X197950000Y-98420000D01*
X197950000Y-100580000D02*
X197950000Y-100960000D01*
X201830000Y-98040000D02*
X201830000Y-98764000D01*
X201830000Y-100236000D02*
X201830000Y-100960000D01*
X201830000Y-100960000D02*
X197710000Y-100960000D01*
%TO.C,C5*%
X152335000Y-61650000D02*
X153865000Y-61650000D01*
X153865000Y-63490000D02*
X152335000Y-63490000D01*
%TO.C,FB1*%
X159645740Y-43240000D02*
G75*
G02*
X165354260Y-43240000I2854260J-1260000D01*
G01*
X165354260Y-45760000D02*
G75*
G02*
X159645740Y-45760000I-2854260J1260000D01*
G01*
%TO.C,C7*%
X145485000Y-41080000D02*
X147015000Y-41080000D01*
X147015000Y-42920000D02*
X145485000Y-42920000D01*
%TO.C,D1*%
X197710000Y-93570000D02*
X201830000Y-93570000D01*
X197710000Y-93950000D02*
X197710000Y-93570000D01*
X197710000Y-96490000D02*
X197710000Y-96110000D01*
X197830000Y-93570000D02*
X197830000Y-93950000D01*
X197830000Y-96110000D02*
X197830000Y-96490000D01*
X197950000Y-93570000D02*
X197950000Y-93950000D01*
X197950000Y-96110000D02*
X197950000Y-96490000D01*
X201830000Y-93570000D02*
X201830000Y-94294000D01*
X201830000Y-95766000D02*
X201830000Y-96490000D01*
X201830000Y-96490000D02*
X197710000Y-96490000D01*
%TO.C,C10*%
X108235000Y-89080000D02*
X109765000Y-89080000D01*
X109765000Y-90920000D02*
X108235000Y-90920000D01*
%TO.C,R2*%
X186500000Y-97710000D02*
X193040000Y-97710000D01*
X186500000Y-98040000D02*
X186500000Y-97710000D01*
X186500000Y-100120000D02*
X186500000Y-100450000D01*
X186500000Y-100450000D02*
X193040000Y-100450000D01*
X193040000Y-97710000D02*
X193040000Y-98040000D01*
X193040000Y-100450000D02*
X193040000Y-100120000D01*
%TO.C,U4*%
X146540000Y-125430000D02*
X146540000Y-145870000D01*
X146540000Y-145870000D02*
X151840000Y-145870000D01*
X148190000Y-125430000D02*
X146540000Y-125430000D01*
X151840000Y-125430000D02*
X150190000Y-125430000D01*
X151840000Y-145870000D02*
X151840000Y-125430000D01*
X150190000Y-125430000D02*
G75*
G02*
X148190000Y-125430000I-1000000J0D01*
G01*
%TO.C,J9*%
X134580000Y-131380000D02*
X142620000Y-131380000D01*
X134580000Y-134200000D02*
X134580000Y-131380000D01*
X134580000Y-142120000D02*
X134580000Y-134800000D01*
X136700000Y-131380000D02*
X136700000Y-132620000D01*
X136700000Y-136380000D02*
X136700000Y-138957000D01*
X136700000Y-140043000D02*
X136700000Y-142120000D01*
X138000000Y-131380000D02*
X138000000Y-132620000D01*
X138000000Y-136380000D02*
X138000000Y-137688000D01*
X138000000Y-141312000D02*
X138000000Y-142120000D01*
X139000000Y-131380000D02*
X139000000Y-132620000D01*
X139000000Y-136380000D02*
X139000000Y-137688000D01*
X139000000Y-141312000D02*
X139000000Y-142120000D01*
X142620000Y-131380000D02*
X142620000Y-142120000D01*
X142620000Y-142120000D02*
X134580000Y-142120000D01*
X134580000Y-134500000D02*
X133970000Y-134940000D01*
X133970000Y-134060000D01*
X134580000Y-134500000D01*
G36*
X134580000Y-134500000D02*
G01*
X133970000Y-134940000D01*
X133970000Y-134060000D01*
X134580000Y-134500000D01*
G37*
%TO.C,R1*%
X186500000Y-93660000D02*
X193040000Y-93660000D01*
X186500000Y-93990000D02*
X186500000Y-93660000D01*
X186500000Y-96070000D02*
X186500000Y-96400000D01*
X186500000Y-96400000D02*
X193040000Y-96400000D01*
X193040000Y-93660000D02*
X193040000Y-93990000D01*
X193040000Y-96400000D02*
X193040000Y-96070000D01*
%TO.C,U3*%
X168650000Y-49090000D02*
X172410000Y-49090000D01*
X168650000Y-55910000D02*
X172410000Y-55910000D01*
X172410000Y-49090000D02*
X172410000Y-50350000D01*
X172410000Y-55910000D02*
X172410000Y-54650000D01*
X167370000Y-49190000D02*
X167130000Y-48860000D01*
X167610000Y-48860000D01*
X167370000Y-49190000D01*
G36*
X167370000Y-49190000D02*
G01*
X167130000Y-48860000D01*
X167610000Y-48860000D01*
X167370000Y-49190000D01*
G37*
%TO.C,SW2*%
X113750000Y-71250000D02*
X113750000Y-76500000D01*
X113750000Y-81750000D02*
X113750000Y-80500000D01*
X114300000Y-71250000D02*
X113750000Y-71250000D01*
X114300000Y-81750000D02*
X113750000Y-81750000D01*
X123700000Y-71250000D02*
X124250000Y-71250000D01*
X123700000Y-81750000D02*
X124250000Y-81750000D01*
X124250000Y-71250000D02*
X124250000Y-72500000D01*
X124250000Y-81750000D02*
X124250000Y-80500000D01*
%TO.C,U1*%
X148540000Y-72810000D02*
X148540000Y-108490000D01*
X148540000Y-108490000D02*
X153840000Y-108490000D01*
X150190000Y-72810000D02*
X148540000Y-72810000D01*
X153840000Y-72810000D02*
X152190000Y-72810000D01*
X153840000Y-108490000D02*
X153840000Y-72810000D01*
X152190000Y-72810000D02*
G75*
G02*
X150190000Y-72810000I-1000000J0D01*
G01*
%TO.C,Y1*%
X133015000Y-100400000D02*
X134385000Y-99730000D01*
X133015000Y-101600000D02*
X134385000Y-102270000D01*
X134385000Y-99730000D02*
X135195000Y-99730000D01*
X134385000Y-102270000D02*
X135195000Y-102270000D01*
X133015000Y-99240000D02*
X121995000Y-99240000D01*
X121995000Y-102760000D01*
X133015000Y-102760000D01*
X133015000Y-99240000D01*
%TO.C,J8*%
X134880000Y-149080000D02*
X162200000Y-149080000D01*
X134880000Y-157120000D02*
X134880000Y-149080000D01*
X135688000Y-152500000D02*
X134880000Y-152500000D01*
X135688000Y-153500000D02*
X134880000Y-153500000D01*
X136957000Y-151200000D02*
X134880000Y-151200000D01*
X140688000Y-152500000D02*
X139312000Y-152500000D01*
X140688000Y-153500000D02*
X139312000Y-153500000D01*
X141957000Y-151200000D02*
X138043000Y-151200000D01*
X145688000Y-152500000D02*
X144312000Y-152500000D01*
X145688000Y-153500000D02*
X144312000Y-153500000D01*
X146957000Y-151200000D02*
X143043000Y-151200000D01*
X150688000Y-152500000D02*
X149312000Y-152500000D01*
X150688000Y-153500000D02*
X149312000Y-153500000D01*
X151957000Y-151200000D02*
X148043000Y-151200000D01*
X155688000Y-152500000D02*
X154312000Y-152500000D01*
X155688000Y-153500000D02*
X154312000Y-153500000D01*
X156957000Y-151200000D02*
X153043000Y-151200000D01*
X160620000Y-151200000D02*
X158043000Y-151200000D01*
X160620000Y-152500000D02*
X159312000Y-152500000D01*
X160620000Y-153500000D02*
X159312000Y-153500000D01*
X162800000Y-149080000D02*
X165620000Y-149080000D01*
X165620000Y-149080000D02*
X165620000Y-157120000D01*
X165620000Y-151200000D02*
X164380000Y-151200000D01*
X165620000Y-152500000D02*
X164380000Y-152500000D01*
X165620000Y-153500000D02*
X164380000Y-153500000D01*
X165620000Y-157120000D02*
X134880000Y-157120000D01*
X162500000Y-149080000D02*
X162060000Y-148470000D01*
X162940000Y-148470000D01*
X162500000Y-149080000D01*
G36*
X162500000Y-149080000D02*
G01*
X162060000Y-148470000D01*
X162940000Y-148470000D01*
X162500000Y-149080000D01*
G37*
%TO.C,J7*%
X202390000Y-119590000D02*
X202390000Y-122090000D01*
X202690000Y-119890000D02*
X202690000Y-142610000D01*
X202690000Y-142610000D02*
X206710000Y-142610000D01*
X204190000Y-119890000D02*
X204190000Y-120890000D01*
X204190000Y-120890000D02*
X202690000Y-120890000D01*
X204190000Y-141610000D02*
X202690000Y-141610000D01*
X204190000Y-142610000D02*
X204190000Y-141610000D01*
X204890000Y-119590000D02*
X202390000Y-119590000D01*
X205000000Y-119890000D02*
X205000000Y-120390000D01*
X205000000Y-120390000D02*
X206210000Y-120390000D01*
X205000000Y-142110000D02*
X205000000Y-142610000D01*
X206210000Y-120390000D02*
X206210000Y-142110000D01*
X206210000Y-142110000D02*
X205000000Y-142110000D01*
X206710000Y-119890000D02*
X202690000Y-119890000D01*
X206710000Y-142610000D02*
X206710000Y-119890000D01*
%TO.C,BZ1*%
X130800000Y-116000000D02*
G75*
G02*
X118600000Y-116000000I-6100000J0D01*
G01*
X118600000Y-116000000D02*
G75*
G02*
X130800000Y-116000000I6100000J0D01*
G01*
%TO.C,C3*%
X136735000Y-105080000D02*
X138265000Y-105080000D01*
X138265000Y-106920000D02*
X136735000Y-106920000D01*
%TO.C,C8*%
X171735000Y-42580000D02*
X173265000Y-42580000D01*
X173265000Y-44420000D02*
X171735000Y-44420000D01*
%TO.C,Q1*%
X111210000Y-116620000D02*
X114810000Y-116620000D01*
X111171522Y-116608478D02*
G75*
G02*
X113010000Y-112169999I1838478J1838478D01*
G01*
X113010000Y-112170000D02*
G75*
G02*
X114848478Y-116608478I0J-2600000D01*
G01*
%TO.C,C9*%
X136235000Y-126080000D02*
X137765000Y-126080000D01*
X137765000Y-127920000D02*
X136235000Y-127920000D01*
%TO.C,C6*%
X152235000Y-65080000D02*
X153765000Y-65080000D01*
X153765000Y-66920000D02*
X152235000Y-66920000D01*
%TO.C,J6*%
X181290000Y-119890000D02*
X181290000Y-142610000D01*
X181290000Y-142610000D02*
X185310000Y-142610000D01*
X181790000Y-120390000D02*
X183000000Y-120390000D01*
X181790000Y-142110000D02*
X181790000Y-120390000D01*
X183000000Y-120390000D02*
X183000000Y-119890000D01*
X183000000Y-142110000D02*
X181790000Y-142110000D01*
X183000000Y-142610000D02*
X183000000Y-142110000D01*
X183110000Y-142910000D02*
X185610000Y-142910000D01*
X183810000Y-119890000D02*
X183810000Y-120890000D01*
X183810000Y-120890000D02*
X185310000Y-120890000D01*
X183810000Y-141610000D02*
X185310000Y-141610000D01*
X183810000Y-142610000D02*
X183810000Y-141610000D01*
X185310000Y-119890000D02*
X181290000Y-119890000D01*
X185310000Y-142610000D02*
X185310000Y-119890000D01*
X185610000Y-142910000D02*
X185610000Y-140410000D01*
%TO.C,J2*%
X158112500Y-82133494D02*
X158112500Y-82566506D01*
X158112500Y-82566506D02*
X158487500Y-82350000D01*
X158487500Y-82350000D02*
X158112500Y-82133494D01*
X158827500Y-74790000D02*
X162340000Y-74790000D01*
X158827500Y-75790000D02*
X158827500Y-74790000D01*
X158827500Y-76990000D02*
X158827500Y-76910000D01*
X158827500Y-78190000D02*
X158827500Y-78110000D01*
X158827500Y-79390000D02*
X158827500Y-79310000D01*
X158827500Y-80590000D02*
X158827500Y-80510000D01*
X158827500Y-81790000D02*
X158827500Y-81710000D01*
X158827500Y-83910000D02*
X158827500Y-82910000D01*
X162340000Y-83910000D02*
X158827500Y-83910000D01*
X163397500Y-75810000D02*
X163397500Y-82890000D01*
%TO.C,J1*%
X138890000Y-74590000D02*
X138890000Y-77090000D01*
X139190000Y-74890000D02*
X139190000Y-97610000D01*
X139190000Y-97610000D02*
X143210000Y-97610000D01*
X140690000Y-74890000D02*
X140690000Y-75890000D01*
X140690000Y-75890000D02*
X139190000Y-75890000D01*
X140690000Y-96610000D02*
X139190000Y-96610000D01*
X140690000Y-97610000D02*
X140690000Y-96610000D01*
X141390000Y-74590000D02*
X138890000Y-74590000D01*
X141500000Y-74890000D02*
X141500000Y-75390000D01*
X141500000Y-75390000D02*
X142710000Y-75390000D01*
X141500000Y-97110000D02*
X141500000Y-97610000D01*
X142710000Y-75390000D02*
X142710000Y-97110000D01*
X142710000Y-97110000D02*
X141500000Y-97110000D01*
X143210000Y-74890000D02*
X139190000Y-74890000D01*
X143210000Y-97610000D02*
X143210000Y-74890000D01*
%TO.C,C2*%
X134080000Y-96515000D02*
X134080000Y-94985000D01*
X135920000Y-94985000D02*
X135920000Y-96515000D01*
%TO.C,C4*%
X152585000Y-67650000D02*
X154115000Y-67650000D01*
X154115000Y-69490000D02*
X152585000Y-69490000D01*
%TO.C,U5*%
X191040000Y-120890000D02*
X191040000Y-143870000D01*
X191040000Y-143870000D02*
X196340000Y-143870000D01*
X192690000Y-120890000D02*
X191040000Y-120890000D01*
X196340000Y-120890000D02*
X194690000Y-120890000D01*
X196340000Y-143870000D02*
X196340000Y-120890000D01*
X194690000Y-120890000D02*
G75*
G02*
X192690000Y-120890000I-1000000J0D01*
G01*
%TO.C,R3*%
X113920000Y-88130000D02*
X120460000Y-88130000D01*
X113920000Y-88460000D02*
X113920000Y-88130000D01*
X113920000Y-90540000D02*
X113920000Y-90870000D01*
X113920000Y-90870000D02*
X120460000Y-90870000D01*
X120460000Y-88130000D02*
X120460000Y-88460000D01*
X120460000Y-90870000D02*
X120460000Y-90540000D01*
%TO.C,U2*%
X177390000Y-41160000D02*
X187610000Y-41160000D01*
X177390000Y-57030000D02*
X177390000Y-41160000D01*
X177390000Y-57030000D02*
X187610000Y-57030000D01*
X179475000Y-57030000D02*
X179475000Y-59470000D01*
X180445000Y-57030000D02*
X180445000Y-59470000D01*
X182015000Y-57030000D02*
X182015000Y-59470000D01*
X182985000Y-57030000D02*
X182985000Y-59470000D01*
X184555000Y-57030000D02*
X184555000Y-59470000D01*
X185525000Y-57030000D02*
X185525000Y-59470000D01*
X187610000Y-57030000D02*
X187610000Y-41160000D01*
%TO.C,SW1*%
X132250000Y-43250000D02*
X132250000Y-48500000D01*
X132250000Y-53750000D02*
X132250000Y-52500000D01*
X132800000Y-43250000D02*
X132250000Y-43250000D01*
X132800000Y-53750000D02*
X132250000Y-53750000D01*
X142200000Y-43250000D02*
X142750000Y-43250000D01*
X142200000Y-53750000D02*
X142750000Y-53750000D01*
X142750000Y-43250000D02*
X142750000Y-44500000D01*
X142750000Y-53750000D02*
X142750000Y-52500000D01*
%TO.C,R4*%
X177740000Y-77780000D02*
X184280000Y-77780000D01*
X177740000Y-78110000D02*
X177740000Y-77780000D01*
X177740000Y-80190000D02*
X177740000Y-80520000D01*
X177740000Y-80520000D02*
X184280000Y-80520000D01*
X184280000Y-77780000D02*
X184280000Y-78110000D01*
X184280000Y-80520000D02*
X184280000Y-80190000D01*
%TD*%
M02*
