%TF.GenerationSoftware,KiCad,Pcbnew,9.0.5*%
%TF.CreationDate,2026-03-01T18:55:26+05:30*%
%TF.ProjectId,SEM4,53454d34-2e6b-4696-9361-645f70636258,rev?*%
%TF.SameCoordinates,Original*%
%TF.FileFunction,Copper,L3,Inr*%
%TF.FilePolarity,Positive*%
%FSLAX46Y46*%
G04 Gerber Fmt 4.6, Leading zero omitted, Abs format (unit mm)*
G04 Created by KiCad (PCBNEW 9.0.5) date 2026-03-01 18:55:26*
%MOMM*%
%LPD*%
G01*
G04 APERTURE LIST*
G04 Aperture macros list*
%AMRoundRect*
0 Rectangle with rounded corners*
0 $1 Rounding radius*
0 $2 $3 $4 $5 $6 $7 $8 $9 X,Y pos of 4 corners*
0 Add a 4 corners polygon primitive as box body*
4,1,4,$2,$3,$4,$5,$6,$7,$8,$9,$2,$3,0*
0 Add four circle primitives for the rounded corners*
1,1,$1+$1,$2,$3*
1,1,$1+$1,$4,$5*
1,1,$1+$1,$6,$7*
1,1,$1+$1,$8,$9*
0 Add four rect primitives between the rounded corners*
20,1,$1+$1,$2,$3,$4,$5,0*
20,1,$1+$1,$4,$5,$6,$7,0*
20,1,$1+$1,$6,$7,$8,$9,0*
20,1,$1+$1,$8,$9,$2,$3,0*%
G04 Aperture macros list end*
%TA.AperFunction,ComponentPad*%
%ADD10R,1.800000X4.400000*%
%TD*%
%TA.AperFunction,ComponentPad*%
%ADD11O,1.800000X4.000000*%
%TD*%
%TA.AperFunction,ComponentPad*%
%ADD12O,4.000000X1.800000*%
%TD*%
%TA.AperFunction,ComponentPad*%
%ADD13C,1.600000*%
%TD*%
%TA.AperFunction,ComponentPad*%
%ADD14RoundRect,0.250001X1.149999X-1.149999X1.149999X1.149999X-1.149999X1.149999X-1.149999X-1.149999X0*%
%TD*%
%TA.AperFunction,ComponentPad*%
%ADD15C,2.800000*%
%TD*%
%TA.AperFunction,ComponentPad*%
%ADD16R,1.800000X1.800000*%
%TD*%
%TA.AperFunction,ComponentPad*%
%ADD17C,1.800000*%
%TD*%
%TA.AperFunction,ComponentPad*%
%ADD18C,2.000000*%
%TD*%
%TA.AperFunction,ComponentPad*%
%ADD19RoundRect,0.250000X-0.550000X-0.550000X0.550000X-0.550000X0.550000X0.550000X-0.550000X0.550000X0*%
%TD*%
%TA.AperFunction,ComponentPad*%
%ADD20RoundRect,0.250001X-1.149999X1.149999X-1.149999X-1.149999X1.149999X-1.149999X1.149999X1.149999X0*%
%TD*%
%TA.AperFunction,ComponentPad*%
%ADD21C,1.000000*%
%TD*%
%TA.AperFunction,ComponentPad*%
%ADD22RoundRect,0.250001X1.149999X1.149999X-1.149999X1.149999X-1.149999X-1.149999X1.149999X-1.149999X0*%
%TD*%
%TA.AperFunction,ComponentPad*%
%ADD23RoundRect,0.250000X-0.725000X0.600000X-0.725000X-0.600000X0.725000X-0.600000X0.725000X0.600000X0*%
%TD*%
%TA.AperFunction,ComponentPad*%
%ADD24O,1.950000X1.700000*%
%TD*%
%TA.AperFunction,ComponentPad*%
%ADD25R,2.000000X2.000000*%
%TD*%
%TA.AperFunction,ComponentPad*%
%ADD26R,1.050000X1.500000*%
%TD*%
%TA.AperFunction,ComponentPad*%
%ADD27O,1.050000X1.500000*%
%TD*%
%TA.AperFunction,ComponentPad*%
%ADD28RoundRect,0.250000X0.725000X-0.600000X0.725000X0.600000X-0.725000X0.600000X-0.725000X-0.600000X0*%
%TD*%
%TA.AperFunction,ComponentPad*%
%ADD29R,1.905000X2.000000*%
%TD*%
%TA.AperFunction,ComponentPad*%
%ADD30O,1.905000X2.000000*%
%TD*%
%TA.AperFunction,ViaPad*%
%ADD31C,0.600000*%
%TD*%
%TA.AperFunction,Conductor*%
%ADD32C,0.200000*%
%TD*%
G04 APERTURE END LIST*
D10*
%TO.N,Net-(J3-Pad1)*%
%TO.C,J3*%
X123800000Y-47500000D03*
D11*
%TO.N,GND*%
X118000000Y-47500000D03*
D12*
%TO.N,N/C*%
X120800000Y-52300000D03*
%TD*%
D10*
%TO.N,Net-(U4-VCC1)*%
%TO.C,J4*%
X124850000Y-134900000D03*
D11*
%TO.N,GND*%
X119050000Y-134900000D03*
D12*
%TO.N,N/C*%
X121850000Y-139700000D03*
%TD*%
D13*
%TO.N,5V*%
%TO.C,C1*%
X151750000Y-59500000D03*
%TO.N,GND*%
X154250000Y-59500000D03*
%TD*%
D14*
%TO.N,Net-(J10-Pin_1)*%
%TO.C,J10*%
X160500000Y-137000000D03*
D15*
%TO.N,Net-(J10-Pin_2)*%
X160500000Y-132000000D03*
%TD*%
D16*
%TO.N,GND*%
%TO.C,D2*%
X198500000Y-99500000D03*
D17*
%TO.N,Net-(D2-A)*%
X201040000Y-99500000D03*
%TD*%
D13*
%TO.N,5V*%
%TO.C,C5*%
X151850000Y-62570000D03*
%TO.N,GND*%
X154350000Y-62570000D03*
%TD*%
D18*
%TO.N,Net-(C7-Pad1)*%
%TO.C,FB1*%
X160500000Y-44500000D03*
%TO.N,Net-(U2-IN)*%
X164500000Y-44500000D03*
%TD*%
D13*
%TO.N,Net-(C7-Pad1)*%
%TO.C,C7*%
X145000000Y-42000000D03*
%TO.N,GND*%
X147500000Y-42000000D03*
%TD*%
D16*
%TO.N,GND*%
%TO.C,D1*%
X198500000Y-95030000D03*
D17*
%TO.N,Net-(D1-A)*%
X201040000Y-95030000D03*
%TD*%
D13*
%TO.N,Reset*%
%TO.C,C10*%
X107750000Y-90000000D03*
%TO.N,GND*%
X110250000Y-90000000D03*
%TD*%
%TO.N,GPIO_FLAG_2*%
%TO.C,R2*%
X185960000Y-99080000D03*
%TO.N,Net-(D2-A)*%
X193580000Y-99080000D03*
%TD*%
D19*
%TO.N,Net-(J8-Pin_4)*%
%TO.C,U4*%
X145380000Y-126760000D03*
D13*
%TO.N,Net-(J8-Pin_6)*%
X145380000Y-129300000D03*
%TO.N,Net-(J9-Pin_1)*%
X145380000Y-131840000D03*
%TO.N,GND*%
X145380000Y-134380000D03*
X145380000Y-136920000D03*
%TO.N,Net-(J9-Pin_2)*%
X145380000Y-139460000D03*
%TO.N,Net-(J8-Pin_5)*%
X145380000Y-142000000D03*
%TO.N,Net-(U4-VCC1)*%
X145380000Y-144540000D03*
%TO.N,Net-(J8-Pin_1)*%
X153000000Y-144540000D03*
%TO.N,Net-(J8-Pin_3)*%
X153000000Y-142000000D03*
%TO.N,Net-(J10-Pin_1)*%
X153000000Y-139460000D03*
%TO.N,GND*%
X153000000Y-136920000D03*
X153000000Y-134380000D03*
%TO.N,Net-(J10-Pin_2)*%
X153000000Y-131840000D03*
%TO.N,Net-(J8-Pin_2)*%
X153000000Y-129300000D03*
%TO.N,Net-(U4-VCC1)*%
X153000000Y-126760000D03*
%TD*%
D20*
%TO.N,Net-(J9-Pin_1)*%
%TO.C,J9*%
X138500000Y-134500000D03*
D15*
%TO.N,Net-(J9-Pin_2)*%
X138500000Y-139500000D03*
%TD*%
D13*
%TO.N,GPIO_FLAG_1*%
%TO.C,R1*%
X185960000Y-95030000D03*
%TO.N,Net-(D1-A)*%
X193580000Y-95030000D03*
%TD*%
D19*
%TO.N,Reset*%
%TO.C,U1*%
X147380000Y-74140000D03*
D13*
%TO.N,Net-(J1-Pin_1)*%
X147380000Y-76680000D03*
%TO.N,Net-(J1-Pin_2)*%
X147380000Y-79220000D03*
%TO.N,Net-(J1-Pin_3)*%
X147380000Y-81760000D03*
%TO.N,Net-(J1-Pin_4)*%
X147380000Y-84300000D03*
%TO.N,Net-(J1-Pin_5)*%
X147380000Y-86840000D03*
%TO.N,5V*%
X147380000Y-89380000D03*
%TO.N,GND*%
X147380000Y-91920000D03*
%TO.N,Net-(U1-XTAL1{slash}PB6)*%
X147380000Y-94460000D03*
%TO.N,Net-(U1-XTAL2{slash}PB7)*%
X147380000Y-97000000D03*
%TO.N,Net-(J1-Pin_6)*%
X147380000Y-99540000D03*
%TO.N,Net-(J1-Pin_7)*%
X147380000Y-102080000D03*
%TO.N,Net-(J1-Pin_8)*%
X147380000Y-104620000D03*
%TO.N,GPIO_FLAG_1*%
X147380000Y-107160000D03*
%TO.N,GPIO_FLAG_2*%
X155000000Y-107160000D03*
%TO.N,PWM1*%
X155000000Y-104620000D03*
%TO.N,MOSI*%
X155000000Y-102080000D03*
%TO.N,MISO*%
X155000000Y-99540000D03*
%TO.N,SCK*%
X155000000Y-97000000D03*
%TO.N,5V*%
X155000000Y-94460000D03*
X155000000Y-91920000D03*
%TO.N,GND*%
X155000000Y-89380000D03*
%TO.N,Net-(J2-Pin_1)*%
X155000000Y-86840000D03*
%TO.N,Net-(J2-Pin_2)*%
X155000000Y-84300000D03*
%TO.N,Net-(J2-Pin_3)*%
X155000000Y-81760000D03*
%TO.N,Net-(J2-Pin_4)*%
X155000000Y-79220000D03*
%TO.N,Net-(J2-Pin_5)*%
X155000000Y-76680000D03*
%TO.N,Net-(J2-Pin_6)*%
X155000000Y-74140000D03*
%TD*%
D21*
%TO.N,Net-(U1-XTAL2{slash}PB7)*%
%TO.C,Y1*%
X135755000Y-99730000D03*
%TO.N,Net-(U1-XTAL1{slash}PB6)*%
X135755000Y-102270000D03*
%TD*%
D22*
%TO.N,Net-(J8-Pin_1)*%
%TO.C,J8*%
X162500000Y-153000000D03*
D15*
%TO.N,Net-(J8-Pin_2)*%
X157500000Y-153000000D03*
%TO.N,Net-(J8-Pin_3)*%
X152500000Y-153000000D03*
%TO.N,Net-(J8-Pin_4)*%
X147500000Y-153000000D03*
%TO.N,Net-(J8-Pin_5)*%
X142500000Y-153000000D03*
%TO.N,Net-(J8-Pin_6)*%
X137500000Y-153000000D03*
%TD*%
D23*
%TO.N,Net-(J7-Pin_1)*%
%TO.C,J7*%
X205000000Y-122500000D03*
D24*
%TO.N,Net-(J7-Pin_2)*%
X205000000Y-125000000D03*
%TO.N,Net-(J7-Pin_3)*%
X205000000Y-127500000D03*
%TO.N,Net-(J7-Pin_4)*%
X205000000Y-130000000D03*
%TO.N,Net-(J7-Pin_5)*%
X205000000Y-132500000D03*
%TO.N,Net-(J7-Pin_6)*%
X205000000Y-135000000D03*
%TO.N,Net-(J7-Pin_7)*%
X205000000Y-137500000D03*
%TO.N,Net-(J7-Pin_8)*%
X205000000Y-140000000D03*
%TD*%
D25*
%TO.N,5V*%
%TO.C,BZ1*%
X120900000Y-116000000D03*
D18*
%TO.N,Net-(BZ1--)*%
X128500000Y-116000000D03*
%TD*%
D13*
%TO.N,Net-(U1-XTAL1{slash}PB6)*%
%TO.C,C3*%
X136250000Y-106000000D03*
%TO.N,GND*%
X138750000Y-106000000D03*
%TD*%
%TO.N,Net-(U2-IN)*%
%TO.C,C8*%
X171250000Y-43500000D03*
%TO.N,GND*%
X173750000Y-43500000D03*
%TD*%
D26*
%TO.N,GND*%
%TO.C,Q1*%
X111740000Y-114770000D03*
D27*
%TO.N,Net-(Q1-G)*%
X113010000Y-114770000D03*
%TO.N,Net-(BZ1--)*%
X114280000Y-114770000D03*
%TD*%
D13*
%TO.N,Net-(U4-VCC1)*%
%TO.C,C9*%
X135750000Y-127000000D03*
%TO.N,GND*%
X138250000Y-127000000D03*
%TD*%
%TO.N,5V*%
%TO.C,C6*%
X151750000Y-66000000D03*
%TO.N,GND*%
X154250000Y-66000000D03*
%TD*%
D28*
%TO.N,Net-(J6-Pin_1)*%
%TO.C,J6*%
X183000000Y-140000000D03*
D24*
%TO.N,Net-(J6-Pin_2)*%
X183000000Y-137500000D03*
%TO.N,Net-(J6-Pin_3)*%
X183000000Y-135000000D03*
%TO.N,Net-(J6-Pin_4)*%
X183000000Y-132500000D03*
%TO.N,Net-(J6-Pin_5)*%
X183000000Y-130000000D03*
%TO.N,Net-(J6-Pin_6)*%
X183000000Y-127500000D03*
%TO.N,Net-(J6-Pin_7)*%
X183000000Y-125000000D03*
%TO.N,Net-(J6-Pin_8)*%
X183000000Y-122500000D03*
%TD*%
D23*
%TO.N,Net-(J1-Pin_1)*%
%TO.C,J1*%
X141500000Y-77500000D03*
D24*
%TO.N,Net-(J1-Pin_2)*%
X141500000Y-80000000D03*
%TO.N,Net-(J1-Pin_3)*%
X141500000Y-82500000D03*
%TO.N,Net-(J1-Pin_4)*%
X141500000Y-85000000D03*
%TO.N,Net-(J1-Pin_5)*%
X141500000Y-87500000D03*
%TO.N,Net-(J1-Pin_6)*%
X141500000Y-90000000D03*
%TO.N,Net-(J1-Pin_7)*%
X141500000Y-92500000D03*
%TO.N,Net-(J1-Pin_8)*%
X141500000Y-95000000D03*
%TD*%
D13*
%TO.N,Net-(U1-XTAL2{slash}PB7)*%
%TO.C,C2*%
X135000000Y-97000000D03*
%TO.N,GND*%
X135000000Y-94500000D03*
%TD*%
%TO.N,5V*%
%TO.C,C4*%
X152100000Y-68570000D03*
%TO.N,GND*%
X154600000Y-68570000D03*
%TD*%
D19*
%TO.N,Net-(J6-Pin_8)*%
%TO.C,U5*%
X189880000Y-122220000D03*
D13*
%TO.N,Net-(J6-Pin_7)*%
X189880000Y-124760000D03*
%TO.N,Net-(J6-Pin_6)*%
X189880000Y-127300000D03*
%TO.N,Net-(J6-Pin_5)*%
X189880000Y-129840000D03*
%TO.N,Net-(J6-Pin_4)*%
X189880000Y-132380000D03*
%TO.N,Net-(J6-Pin_3)*%
X189880000Y-134920000D03*
%TO.N,Net-(J6-Pin_2)*%
X189880000Y-137460000D03*
%TO.N,Net-(J6-Pin_1)*%
X189880000Y-140000000D03*
%TO.N,GND*%
X189880000Y-142540000D03*
%TO.N,12V*%
X197500000Y-142540000D03*
%TO.N,Net-(J7-Pin_8)*%
X197500000Y-140000000D03*
%TO.N,Net-(J7-Pin_7)*%
X197500000Y-137460000D03*
%TO.N,Net-(J7-Pin_6)*%
X197500000Y-134920000D03*
%TO.N,Net-(J7-Pin_5)*%
X197500000Y-132380000D03*
%TO.N,Net-(J7-Pin_4)*%
X197500000Y-129840000D03*
%TO.N,Net-(J7-Pin_3)*%
X197500000Y-127300000D03*
%TO.N,Net-(J7-Pin_2)*%
X197500000Y-124760000D03*
%TO.N,Net-(J7-Pin_1)*%
X197500000Y-122220000D03*
%TD*%
%TO.N,5V*%
%TO.C,R3*%
X113380000Y-89500000D03*
%TO.N,Reset*%
X121000000Y-89500000D03*
%TD*%
D29*
%TO.N,Net-(U2-IN)*%
%TO.C,U2*%
X179960000Y-60730000D03*
D30*
%TO.N,GND*%
X182500000Y-60730000D03*
%TO.N,5V*%
X185040000Y-60730000D03*
%TD*%
D13*
%TO.N,PWM1*%
%TO.C,R4*%
X177200000Y-79150000D03*
%TO.N,Net-(Q1-G)*%
X184820000Y-79150000D03*
%TD*%
D31*
%TO.N,PWM1*%
X165365500Y-101929900D03*
%TO.N,Net-(Q1-G)*%
X113309400Y-92418200D03*
%TO.N,SCK*%
X165520300Y-96275200D03*
%TO.N,Reset*%
X121066300Y-69680100D03*
X164501700Y-96467200D03*
X150706500Y-96066300D03*
%TO.N,Net-(C7-Pad1)*%
X142440200Y-54817800D03*
%TO.N,GND*%
X114069300Y-71135700D03*
X110250000Y-81407300D03*
%TD*%
D32*
%TO.N,PWM1*%
X162675400Y-104620000D02*
X155000000Y-104620000D01*
X165365500Y-101929900D02*
X162675400Y-104620000D01*
%TO.N,GPIO_FLAG_2*%
X177880000Y-107160000D02*
X185960000Y-99080000D01*
X155000000Y-107160000D02*
X177880000Y-107160000D01*
%TO.N,GPIO_FLAG_1*%
X169116100Y-95030000D02*
X185960000Y-95030000D01*
X160796100Y-103350000D02*
X169116100Y-95030000D01*
X151190000Y-103350000D02*
X160796100Y-103350000D01*
X147380000Y-107160000D02*
X151190000Y-103350000D01*
%TO.N,Net-(Q1-G)*%
X114531200Y-91196400D02*
X113309400Y-92418200D01*
X146233600Y-91196400D02*
X114531200Y-91196400D01*
X146921600Y-90508400D02*
X146233600Y-91196400D01*
X149340800Y-90508400D02*
X146921600Y-90508400D01*
X151739200Y-88110000D02*
X149340800Y-90508400D01*
X175860000Y-88110000D02*
X151739200Y-88110000D01*
X184820000Y-79150000D02*
X175860000Y-88110000D01*
%TO.N,Net-(J10-Pin_1)*%
X158040000Y-139460000D02*
X153000000Y-139460000D01*
X160500000Y-137000000D02*
X158040000Y-139460000D01*
%TO.N,Net-(J10-Pin_2)*%
X160340000Y-131840000D02*
X160500000Y-132000000D01*
X153000000Y-131840000D02*
X160340000Y-131840000D01*
%TO.N,Net-(J9-Pin_1)*%
X141160000Y-131840000D02*
X138500000Y-134500000D01*
X145380000Y-131840000D02*
X141160000Y-131840000D01*
%TO.N,Net-(J9-Pin_2)*%
X138540000Y-139460000D02*
X138500000Y-139500000D01*
X145380000Y-139460000D02*
X138540000Y-139460000D01*
%TO.N,Net-(J8-Pin_1)*%
X154040000Y-144540000D02*
X153000000Y-144540000D01*
X162500000Y-153000000D02*
X154040000Y-144540000D01*
%TO.N,Net-(J7-Pin_6)*%
X197580000Y-135000000D02*
X197500000Y-134920000D01*
X205000000Y-135000000D02*
X197580000Y-135000000D01*
%TO.N,Net-(J7-Pin_8)*%
X197500000Y-140000000D02*
X205000000Y-140000000D01*
%TO.N,Net-(J7-Pin_4)*%
X203563300Y-129840000D02*
X203723300Y-130000000D01*
X197500000Y-129840000D02*
X203563300Y-129840000D01*
X205000000Y-130000000D02*
X203723300Y-130000000D01*
%TO.N,Net-(J7-Pin_5)*%
X197620000Y-132500000D02*
X197500000Y-132380000D01*
X205000000Y-132500000D02*
X197620000Y-132500000D01*
%TO.N,Net-(J7-Pin_2)*%
X203483300Y-124760000D02*
X203723300Y-125000000D01*
X197500000Y-124760000D02*
X203483300Y-124760000D01*
X205000000Y-125000000D02*
X203723300Y-125000000D01*
%TO.N,Net-(J7-Pin_7)*%
X197540000Y-137500000D02*
X197500000Y-137460000D01*
X205000000Y-137500000D02*
X197540000Y-137500000D01*
%TO.N,Net-(J7-Pin_1)*%
X204720000Y-122220000D02*
X205000000Y-122500000D01*
X197500000Y-122220000D02*
X204720000Y-122220000D01*
%TO.N,Net-(J7-Pin_3)*%
X203523300Y-127300000D02*
X203723300Y-127500000D01*
X197500000Y-127300000D02*
X203523300Y-127300000D01*
X205000000Y-127500000D02*
X203723300Y-127500000D01*
%TO.N,Net-(J6-Pin_7)*%
X184516700Y-124760000D02*
X184276700Y-125000000D01*
X189880000Y-124760000D02*
X184516700Y-124760000D01*
X183000000Y-125000000D02*
X184276700Y-125000000D01*
%TO.N,Net-(J6-Pin_8)*%
X189600000Y-122500000D02*
X189880000Y-122220000D01*
X183000000Y-122500000D02*
X189600000Y-122500000D01*
%TO.N,Net-(J6-Pin_6)*%
X184476700Y-127300000D02*
X184276700Y-127500000D01*
X189880000Y-127300000D02*
X184476700Y-127300000D01*
X183000000Y-127500000D02*
X184276700Y-127500000D01*
%TO.N,Net-(J6-Pin_3)*%
X189800000Y-135000000D02*
X189880000Y-134920000D01*
X183000000Y-135000000D02*
X189800000Y-135000000D01*
%TO.N,Net-(J6-Pin_1)*%
X189880000Y-140000000D02*
X183000000Y-140000000D01*
%TO.N,Net-(J6-Pin_5)*%
X184436700Y-129840000D02*
X184276700Y-130000000D01*
X189880000Y-129840000D02*
X184436700Y-129840000D01*
X183000000Y-130000000D02*
X184276700Y-130000000D01*
%TO.N,Net-(J6-Pin_2)*%
X184316700Y-137460000D02*
X184276700Y-137500000D01*
X189880000Y-137460000D02*
X184316700Y-137460000D01*
X183000000Y-137500000D02*
X184276700Y-137500000D01*
%TO.N,Net-(J6-Pin_4)*%
X184396700Y-132380000D02*
X184276700Y-132500000D01*
X189880000Y-132380000D02*
X184396700Y-132380000D01*
X183000000Y-132500000D02*
X184276700Y-132500000D01*
%TO.N,SCK*%
X165103400Y-96692100D02*
X165520300Y-96275200D01*
X165520300Y-96275200D02*
X165103400Y-96692100D01*
X165103400Y-96692100D02*
X165520300Y-96275200D01*
X165103400Y-96716400D02*
X165103400Y-96692100D01*
X164750900Y-97068900D02*
X165103400Y-96716400D01*
X155068900Y-97068900D02*
X164750900Y-97068900D01*
X155000000Y-97000000D02*
X155068900Y-97068900D01*
%TO.N,Net-(J1-Pin_2)*%
X146600000Y-80000000D02*
X147380000Y-79220000D01*
X141500000Y-80000000D02*
X146600000Y-80000000D01*
%TO.N,Net-(J1-Pin_5)*%
X143436700Y-86840000D02*
X142776700Y-87500000D01*
X147380000Y-86840000D02*
X143436700Y-86840000D01*
X141500000Y-87500000D02*
X142776700Y-87500000D01*
%TO.N,Net-(J1-Pin_1)*%
X146560000Y-77500000D02*
X147380000Y-76680000D01*
X141500000Y-77500000D02*
X146560000Y-77500000D01*
%TO.N,Net-(J1-Pin_3)*%
X146640000Y-82500000D02*
X147380000Y-81760000D01*
X141500000Y-82500000D02*
X146640000Y-82500000D01*
%TO.N,Net-(J1-Pin_4)*%
X143476700Y-84300000D02*
X142776700Y-85000000D01*
X147380000Y-84300000D02*
X143476700Y-84300000D01*
X141500000Y-85000000D02*
X142776700Y-85000000D01*
%TO.N,Net-(D2-A)*%
X194361700Y-98298300D02*
X193580000Y-99080000D01*
X199838300Y-98298300D02*
X194361700Y-98298300D01*
X201040000Y-99500000D02*
X199838300Y-98298300D01*
%TO.N,Net-(D1-A)*%
X194781700Y-96231700D02*
X193580000Y-95030000D01*
X199838300Y-96231700D02*
X194781700Y-96231700D01*
X201040000Y-95030000D02*
X199838300Y-96231700D01*
%TO.N,Reset*%
X109375600Y-88374400D02*
X107750000Y-90000000D01*
X119874400Y-88374400D02*
X109375600Y-88374400D01*
X121000000Y-89500000D02*
X119874400Y-88374400D01*
X163932600Y-95898100D02*
X164501700Y-96467200D01*
X150874700Y-95898100D02*
X163932600Y-95898100D01*
X150706500Y-96066300D02*
X150874700Y-95898100D01*
%TO.N,Net-(U4-VCC1)*%
X137094400Y-125655600D02*
X135750000Y-127000000D01*
X151895600Y-125655600D02*
X137094400Y-125655600D01*
X153000000Y-126760000D02*
X151895600Y-125655600D01*
X124850000Y-134900000D02*
X127850000Y-134900000D01*
X141065200Y-144540000D02*
X129637600Y-133112400D01*
X145380000Y-144540000D02*
X141065200Y-144540000D01*
X127850000Y-134900000D02*
X129637600Y-133112400D01*
X129637600Y-133112400D02*
X135750000Y-127000000D01*
%TO.N,Net-(U2-IN)*%
X165500000Y-43500000D02*
X164500000Y-44500000D01*
X171250000Y-43500000D02*
X165500000Y-43500000D01*
%TO.N,Net-(C7-Pad1)*%
X147500000Y-44500000D02*
X145000000Y-42000000D01*
X160500000Y-44500000D02*
X147500000Y-44500000D01*
%TO.N,Net-(U1-XTAL1{slash}PB6)*%
X148495200Y-95575200D02*
X147380000Y-94460000D01*
X148495200Y-97501300D02*
X148495200Y-95575200D01*
X147726500Y-98270000D02*
X148495200Y-97501300D01*
X139755000Y-98270000D02*
X147726500Y-98270000D01*
X135755000Y-102270000D02*
X139755000Y-98270000D01*
%TO.N,Net-(U1-XTAL2{slash}PB7)*%
X147380000Y-97000000D02*
X135000000Y-97000000D01*
%TO.N,GND*%
X191648300Y-89380000D02*
X155000000Y-89380000D01*
X197298300Y-95030000D02*
X191648300Y-89380000D01*
X198500000Y-95030000D02*
X197298300Y-95030000D01*
X176350900Y-59500000D02*
X154250000Y-59500000D01*
X176350900Y-59500100D02*
X176350900Y-59500000D01*
X178882500Y-62031700D02*
X176350900Y-59500100D01*
X181041500Y-62031700D02*
X178882500Y-62031700D01*
X181245800Y-61827400D02*
X181041500Y-62031700D01*
X181245800Y-60730000D02*
X181245800Y-61827400D01*
X182500000Y-60730000D02*
X181245800Y-60730000D01*
X170954600Y-134380000D02*
X153000000Y-134380000D01*
X179114600Y-142540000D02*
X170954600Y-134380000D01*
X189880000Y-142540000D02*
X179114600Y-142540000D01*
X151893100Y-133273100D02*
X146486900Y-133273100D01*
X153000000Y-134380000D02*
X151893100Y-133273100D01*
X146486900Y-131383400D02*
X146486900Y-133273100D01*
X145673500Y-130570000D02*
X146486900Y-131383400D01*
X141820000Y-130570000D02*
X145673500Y-130570000D01*
X138250000Y-127000000D02*
X141820000Y-130570000D01*
X146486900Y-133273100D02*
X145380000Y-134380000D01*
X152460000Y-91920000D02*
X147380000Y-91920000D01*
X155000000Y-89380000D02*
X152460000Y-91920000D01*
X135300000Y-93750000D02*
X135000000Y-94050000D01*
X145550000Y-93750000D02*
X135300000Y-93750000D01*
X147380000Y-91920000D02*
X145550000Y-93750000D01*
X135000000Y-94050000D02*
X135000000Y-94500000D01*
X172250000Y-42000000D02*
X147500000Y-42000000D01*
X173750000Y-43500000D02*
X172250000Y-42000000D01*
X114090400Y-94050000D02*
X135000000Y-94050000D01*
X110250000Y-90209600D02*
X114090400Y-94050000D01*
X110250000Y-90000000D02*
X110250000Y-90209600D01*
%TO.N,Net-(BZ1--)*%
X127198300Y-114698300D02*
X128500000Y-116000000D01*
X115178400Y-114698300D02*
X127198300Y-114698300D01*
X115106700Y-114770000D02*
X115178400Y-114698300D01*
X114280000Y-114770000D02*
X115106700Y-114770000D01*
%TO.N,5V*%
X185040000Y-60730000D02*
X183785800Y-60730000D01*
X183785800Y-61278700D02*
X183785800Y-60730000D01*
X182631100Y-62433400D02*
X183785800Y-61278700D01*
X172775400Y-62433400D02*
X182631100Y-62433400D01*
X171782000Y-61440000D02*
X172775400Y-62433400D01*
X152980000Y-61440000D02*
X171782000Y-61440000D01*
X151850000Y-62570000D02*
X152980000Y-61440000D01*
X114502200Y-90622200D02*
X113380000Y-89500000D01*
X136565100Y-90622200D02*
X114502200Y-90622200D01*
X138358600Y-88828700D02*
X136565100Y-90622200D01*
X146828700Y-88828700D02*
X138358600Y-88828700D01*
X147380000Y-89380000D02*
X146828700Y-88828700D01*
%TD*%
M02*
